<?xml version="1.0" encoding="UTF-8"?>
<svg version="1.1" xmlns="http://www.w3.org/2000/svg" width="500" height="500">
<path d="M0 0 C-0.55848826 4.18358477 -3.04446302 7.02629569 -5.5625 10.25 C-6.19961914 11.08144531 -6.19961914 11.08144531 -6.84960938 11.9296875 C-7.89398341 13.29089411 -8.94622464 14.64605833 -10 16 C-13.01464513 14.91170147 -15.76991188 13.60806129 -18.5390625 12.01171875 C-40.54536055 -0.59741258 -65.290067 -4.39551207 -90 2 C-113.28275095 9.10093055 -133.07793404 24.71074699 -144.95703125 45.96484375 C-155.96904089 66.9036066 -158.14170062 91.24094336 -152 114 C-149.94280828 120.56365956 -147.36707526 126.84570273 -143.796875 132.734375 C-143.42651123 133.34587402 -143.05614746 133.95737305 -142.67456055 134.58740234 C-141.62637827 136.27231796 -140.53514084 137.93022878 -139.44140625 139.5859375 C-136.39733716 146.796009 -139.48641113 154.22221097 -142.16015625 161.19140625 C-142.46948593 162.02212143 -142.77881561 162.85283661 -143.09751892 163.70872498 C-144.07622989 166.33037426 -145.06907078 168.94639737 -146.0625 171.5625 C-146.73336792 173.35185913 -147.40329883 175.14156987 -148.07226562 176.93164062 C-149.70404634 181.29189748 -151.34851097 185.64717172 -153 190 C-149.9429757 190 -148.31053586 189.49828858 -145.48779297 188.42358398 C-144.57609344 188.08000351 -143.66439392 187.73642303 -142.72506714 187.38243103 C-141.24854172 186.81994408 -141.24854172 186.81994408 -139.7421875 186.24609375 C-137.65135884 185.46594631 -135.56020223 184.68667734 -133.46875 183.90820312 C-130.17395508 182.67682255 -126.88163778 181.44002894 -123.59472656 180.18774414 C-120.42093766 178.98144633 -117.23889401 177.79957009 -114.0546875 176.62109375 C-112.59638016 176.05557045 -112.59638016 176.05557045 -111.10861206 175.47862244 C-102.66921267 172.39139704 -96.47730006 173.15067399 -87.9375 175.5 C-64.40364323 181.95647648 -39.67961881 177.51062517 -18.63671875 165.68359375 C-14.93698406 163.32124463 -11.60939941 160.59941487 -8.2890625 157.734375 C-6 156 -6 156 -1 154 C2.96 157.96 6.92 161.92 11 166 C8.86663752 170.26672496 6.47810684 172.40777244 2.8125 175.25 C2.19318604 175.73162598 1.57387207 176.21325195 0.93579102 176.70947266 C-5.61825832 181.66720223 -12.564325 185.5338378 -20 189 C-21.03382813 189.48210937 -22.06765625 189.96421875 -23.1328125 190.4609375 C-44.23380931 199.36545022 -70.88253757 201.6462604 -92.9375 194.875 C-101.43915221 192.44595651 -107.94548126 195.48384081 -115.94140625 198.5234375 C-117.19460055 198.99049593 -118.44818357 199.45651253 -119.70213318 199.92153931 C-122.98987043 201.14380077 -126.27241238 202.37944473 -129.55395508 203.6182251 C-132.88402615 204.87292156 -136.21844545 206.11593993 -139.55273438 207.359375 C-143.3064549 208.75936812 -147.05937187 210.16127836 -150.80921936 211.57162476 C-151.92735519 211.99190948 -153.04549103 212.41219421 -154.19750977 212.84521484 C-155.17567154 213.21383636 -156.15383331 213.58245789 -157.16163635 213.96224976 C-163.17017674 216.15906631 -167.61048694 217.60852505 -174 217 C-176.9375 215.5 -176.9375 215.5 -179 213 C-180.93014067 205.50588141 -178.72719368 200.11264609 -176.01171875 193.0546875 C-175.5933223 191.92604279 -175.17492584 190.79739807 -174.74385071 189.634552 C-173.40794185 186.04173282 -172.04832394 182.45844688 -170.6875 178.875 C-169.78289055 176.45763486 -168.87987837 174.03967136 -167.97851562 171.62109375 C-166.32471745 167.18608652 -164.66020082 162.7553782 -162.98706055 158.32763672 C-162.63771454 157.39004517 -162.28836853 156.45245361 -161.92843628 155.4864502 C-161.17967171 153.48117976 -160.41348482 151.48241966 -159.6418457 149.48583984 C-158.63917543 145.6025425 -160.59267754 143.02362162 -162.5 139.75 C-175.93148989 114.84541434 -179.44875979 84.92789275 -171.29980469 57.65673828 C-166.23324334 41.77195316 -158.97450064 28.63416047 -148 16 C-147.53464844 15.39027344 -147.06929687 14.78054687 -146.58984375 14.15234375 C-131.21021918 -5.74239996 -102.92870498 -17.26642128 -78.75 -20.6875 C-49.76373832 -23.16901967 -24.38667909 -15.47616173 0 0 Z " fill="#000000" transform="translate(201,168)"/>
<path d="M0 0 C6.27 0 12.54 0 19 0 C19.33 22.44 19.66 44.88 20 68 C22.31 65.36 24.62 62.72 27 60 C36.27273145 52.22434875 47.03983377 49.2865207 59 50 C70.18282077 51.12957786 78.05008646 54.83703276 85.27734375 63.55859375 C94.05300165 75.99575064 93.29286141 92.10715249 93.1953125 106.67578125 C93.19157247 108.33871794 93.18873019 110.00165686 93.18673706 111.66459656 C93.17917839 115.99639194 93.15959872 120.32804865 93.1373291 124.65979004 C93.11670126 129.09804408 93.10769949 133.536321 93.09765625 137.97460938 C93.07634375 146.64980965 93.04122708 155.32487149 93 164 C86.73 164 80.46 164 74 164 C73.98541748 161.85145508 73.97083496 159.70291016 73.95581055 157.48925781 C73.90521771 150.34859522 73.83858098 143.20814508 73.76428509 136.0676918 C73.71977265 131.74322667 73.68047581 127.41885161 73.65356445 123.09423828 C73.62733881 118.91190691 73.58680439 114.72992581 73.53681374 110.54781342 C73.52027404 108.96127467 73.50868021 107.37467552 73.50238609 105.78806305 C73.52722236 88.07540306 73.52722236 88.07540306 65.78125 72.625 C60.01747162 67.36681621 53.54297867 66.32127876 45.921875 66.62109375 C37.89044647 67.66260253 31.26865899 71.92784181 26 78 C21.64172586 85.01865985 19.89533541 90.83830675 19.79467773 99.06347656 C19.77982834 100.11773834 19.77982834 100.11773834 19.76467896 101.19329834 C19.73317216 103.50904 19.70834951 105.82480215 19.68359375 108.140625 C19.66301487 109.74917118 19.64201815 111.35771206 19.62062073 112.96624756 C19.56549652 117.1944957 19.51604479 121.42279186 19.46777344 125.65112305 C19.41748784 129.96797954 19.36183865 134.28476652 19.30664062 138.6015625 C19.19917712 147.06765109 19.09820187 155.53379891 19 164 C12.73 164 6.46 164 0 164 C0 109.88 0 55.76 0 0 Z " fill="#000000" transform="translate(226,172)"/>
<path d="M0 0 C8.43432283 8.69886801 10.91242999 19.34115685 10.85571289 31.15356445 C10.85585892 31.95408737 10.85600494 32.75461029 10.8561554 33.57939148 C10.85546105 36.21441395 10.84769106 38.84936494 10.83984375 41.484375 C10.83797787 43.31568869 10.83655477 45.14700289 10.83555603 46.97831726 C10.83174422 51.7902261 10.82192535 56.60210459 10.81085205 61.41400146 C10.80060919 66.32742909 10.79605225 71.24086164 10.79101562 76.15429688 C10.78030187 85.78907796 10.76271589 95.42382858 10.7421875 105.05859375 C4.8021875 105.05859375 -1.1378125 105.05859375 -7.2578125 105.05859375 C-7.7528125 97.63359375 -7.7528125 97.63359375 -8.2578125 90.05859375 C-9.0621875 91.25484375 -9.8665625 92.45109375 -10.6953125 93.68359375 C-16.47524847 101.36750863 -24.69648943 105.66256756 -34.01171875 107.64453125 C-44.99748529 109.04584443 -56.58383125 107.82874517 -65.72265625 101.296875 C-71.77907212 96.30057731 -75.77640085 90.84619814 -77.2578125 83.05859375 C-78.04663282 71.45905561 -77.64348682 61.15886767 -70.0703125 51.68359375 C-66.3354311 47.78112152 -62.1771751 45.23048083 -57.2578125 43.05859375 C-55.64519531 42.32962891 -55.64519531 42.32962891 -54 41.5859375 C-47.24084779 39.09705047 -39.91831692 38.44415182 -32.8203125 37.43359375 C-31.34298432 37.21561932 -29.86576955 36.9968748 -28.38867188 36.77734375 C-21.35826941 35.74094838 -14.32903523 34.77607971 -7.2578125 34.05859375 C-9.35075401 21.07341951 -9.35075401 21.07341951 -17.2578125 11.05859375 C-25.20909887 6.25469157 -34.66207437 7.26533773 -43.4453125 9.24609375 C-52.22807174 11.71407227 -58.83484736 15.75647579 -66.2578125 21.05859375 C-66.2578125 14.45859375 -66.2578125 7.85859375 -66.2578125 1.05859375 C-47.15419094 -9.17548923 -18.31890922 -15.75172644 0 0 Z M-22.6328125 50.80859375 C-23.85871094 50.96585937 -25.08460938 51.123125 -26.34765625 51.28515625 C-36.10385589 52.63012545 -47.66764896 54.24690853 -55.2578125 61.05859375 C-58.54196034 66.53217348 -59.11815585 71.74940917 -58.2578125 78.05859375 C-56.60023083 84.04256785 -53.56069668 87.09306478 -48.2578125 90.1484375 C-41.75844151 93.10615906 -33.64370113 93.18335966 -26.9453125 90.80859375 C-18.23278835 86.930458 -12.65737323 81.17578379 -9.1484375 72.23046875 C-6.96819728 64.53792308 -6.94050065 57.0031422 -7.2578125 49.05859375 C-12.38778037 49.05859375 -17.55927242 50.11557197 -22.6328125 50.80859375 Z " fill="#000000" transform="translate(407.2578125,230.94140625)"/>
<path d="M0 0 C0 10.89 0 21.78 0 33 C9.24 33 18.48 33 28 33 C28 38.28 28 43.56 28 49 C18.76 49 9.52 49 0 49 C0.06306618 57.85853332 0.13860146 66.71672437 0.23571491 75.57495117 C0.28032454 79.68878191 0.31960096 83.80251577 0.34643555 87.91650391 C0.37256299 91.89134642 0.41303092 95.86581421 0.46318626 99.84042358 C0.47979148 101.35211504 0.4913451 102.86387121 0.49761391 104.37564087 C0.12299654 117.13391395 0.12299654 117.13391395 5.9375 127.9375 C10.88613754 130.48679813 16.04895871 130.80824698 21.453125 129.328125 C23.65043559 128.59568814 25.82721028 127.80226082 28 127 C28 132.28 28 137.56 28 143 C21.30143482 145.87081365 18.00940607 146.49461046 11.125 146.4375 C10.27808594 146.45748047 9.43117188 146.47746094 8.55859375 146.49804688 C1.31699194 146.492502 -4.62001052 144.72690676 -10.3046875 140.140625 C-17.54605782 131.42215925 -19.13395055 123.07465569 -19.11352539 111.77954102 C-19.11367142 111.09576889 -19.11381744 110.41199677 -19.1139679 109.70750427 C-19.11327755 107.47293803 -19.10552677 105.23845772 -19.09765625 103.00390625 C-19.09578895 101.44449407 -19.09436652 99.88508131 -19.09336853 98.32566833 C-19.08956796 94.24043124 -19.07975891 90.15523025 -19.06866455 86.07000732 C-19.05839731 81.89368172 -19.05385957 77.71735024 -19.04882812 73.54101562 C-19.03813423 65.36065875 -19.02055759 57.18033804 -19 49 C-25.27 49 -31.54 49 -38 49 C-38 43.72 -38 38.44 -38 33 C-31.73 33 -25.46 33 -19 33 C-19 24.09 -19 15.18 -19 6 C-9.75862069 2.53448276 -9.75862069 2.53448276 -6.125 1.3125 C-5.38507813 1.06113281 -4.64515625 0.80976563 -3.8828125 0.55078125 C-2 0 -2 0 0 0 Z " fill="#000000" transform="translate(462,192)"/>
<path d="M0 0 C3.98131442 2.06438525 6.63693074 4.20558593 9 8 C9.78623141 12.33737663 10.013156 16.96162661 8.015625 20.98046875 C5.24589803 24.44262747 2.23318811 26.65081059 -2.1484375 27.3359375 C-7.58888644 27.43138397 -10.80304082 26.79724878 -15 23 C-18.05146436 18.52451893 -18.95053785 14.29132736 -18 9 C-13.99910762 1.14639643 -8.53096573 -1.36916734 0 0 Z " fill="#000000" transform="translate(174,245)"/>
<path d="M0 0 C3.7625042 1.70444269 6.30142734 3.84583647 8.4375 7.375 C9.43445741 12.02746791 9.46787657 15.67434973 7.875 20.1875 C5.55416594 23.6687511 3.78078081 25.17962405 0 27 C-4.77089788 27.83789963 -8.05685774 27.48903673 -12.375 25.25 C-15.7551043 22.35276775 -17.56852268 20.49357532 -18.8125 16.1875 C-19.04573515 12.22250249 -18.53577752 9.67251147 -17 6 C-11.98147714 0.56210197 -7.2159044 -1.04937172 0 0 Z " fill="#010101" transform="translate(135,245)"/>
<path d="M0 0 C4.38253554 2.19126777 7.16669816 4.41674539 9 9 C9.71062194 13.73747957 9.47089401 17.05821199 7.3125 21.375 C4.40542645 24.67492133 2.34201838 26.64869724 -2.109375 27.31640625 C-7.55267135 27.59953072 -10.79364195 26.70560114 -15 23 C-18.16205748 19.31093294 -18.52383784 15.92109268 -18.3515625 11.21484375 C-17.63443905 6.69696599 -15.18268822 4.01373276 -11.8125 1.125 C-7.79880044 -0.48047982 -4.26304489 -0.67667379 0 0 Z " fill="#000000" transform="translate(95,245)"/>
</svg>
