<?xml version="1.0" encoding="UTF-8"?>
<svg version="1.1" xmlns="http://www.w3.org/2000/svg" width="1563" height="1563">
<path d="M0 0 C1.08941391 -0.00705963 2.17882782 -0.01411926 3.30125427 -0.02139282 C48.50991476 -0.2478051 48.50991476 -0.2478051 68.37890625 3.203125 C69.59513672 3.40711914 70.81136719 3.61111328 72.06445312 3.82128906 C108.00138357 9.96580654 142.36723655 20.71108423 175.37890625 36.203125 C176.36568359 36.66557617 177.35246094 37.12802734 178.36914062 37.60449219 C190.64824901 43.42027292 202.53096437 49.84776691 214.25390625 56.703125 C214.85088318 57.04846283 215.44786011 57.39380066 216.06292725 57.74960327 C217.75585109 58.73279481 219.43871614 59.73324448 221.12109375 60.734375 C222.08901855 61.30736328 223.05694336 61.88035156 224.05419922 62.47070312 C226.46364943 64.26627745 227.4178096 65.38567338 228.37890625 68.203125 C227.02058755 80.30065088 217.97199441 90.29774914 210.72851562 99.48583984 C208.4246603 102.41733737 206.15269225 105.37328755 203.87890625 108.328125 C203.45770508 108.87251221 203.03650391 109.41689941 202.60253906 109.9777832 C200.77691301 112.34429396 199.03796413 114.71453819 197.37890625 117.203125 C191.16597208 115.27516269 185.30369846 112.95457487 179.44140625 110.140625 C178.61785645 109.7492334 177.79430664 109.3578418 176.94580078 108.95458984 C171.4166073 106.2887853 166.07486217 103.38391555 160.75390625 100.328125 C97.20004338 64.23720021 18.80394541 55.02435794 -51.74316406 73.13671875 C-90.38041794 83.80982673 -127.1853873 104.25222222 -157.62109375 130.203125 C-158.72861253 131.12566565 -159.83671847 132.04750173 -160.9453125 132.96875 C-171.9692998 142.19514869 -182.48010222 152.07998162 -191.62109375 163.203125 C-192.25217041 163.96351074 -192.25217041 163.96351074 -192.89599609 164.73925781 C-200.71036012 174.18507459 -207.918388 183.93863259 -214.62109375 194.203125 C-215.00330078 194.78433105 -215.38550781 195.36553711 -215.77929688 195.96435547 C-255.96689026 257.78733313 -265.07137782 336.94118916 -250.01269531 408.07714844 C-245.17262314 429.74187825 -237.21922296 450.70393664 -226.62109375 470.203125 C-226.23453613 470.92935059 -225.84797852 471.65557617 -225.44970703 472.40380859 C-221.2374884 480.31195251 -216.93566549 487.99702644 -211.68359375 495.265625 C-203.59942972 506.5863062 -202.22767433 519.29097854 -204.14575195 532.93530273 C-205.76181523 541.74210118 -207.93966568 549.9735064 -211.05859375 558.390625 C-211.52416799 559.6729416 -211.98906163 560.95550545 -212.45336914 562.23828125 C-214.15065535 566.90269432 -215.88415595 571.55335695 -217.62109375 576.203125 C-217.98557617 577.17977112 -218.35005859 578.15641724 -218.72558594 579.16265869 C-228.83995868 606.24608134 -239.08892141 633.27919377 -249.62109375 660.203125 C-233.52768961 657.32688266 -218.47461456 651.1990074 -203.2599144 645.41347885 C-199.54266356 644.00286209 -195.82056044 642.605169 -192.09887695 641.20629883 C-183.9545951 638.14279468 -175.81604602 635.06427264 -167.67874146 631.98229218 C-158.90089002 628.6583929 -150.12015757 625.34216132 -141.3364563 622.03375244 C-138.3953893 620.92339345 -135.45719958 619.80568554 -132.51928711 618.68701172 C-100.78699164 606.66208986 -75.90675708 606.91907461 -43.06640625 614.765625 C28.4849708 631.82342229 107.01226641 621.23517194 170.31445312 582.52734375 C179.17512998 576.84376863 187.2972433 570.1964655 195.25390625 563.328125 C203.37687907 556.3306095 212.85778944 549.91825192 223.37890625 547.203125 C226.53882607 548.42215647 228.65861303 550.21384953 231.06176758 552.5637207 C231.76541946 553.2481575 232.46907135 553.9325943 233.19404602 554.63777161 C234.3161573 555.74713326 234.3161573 555.74713326 235.4609375 556.87890625 C236.23451096 557.64107956 237.00808441 558.40325287 237.80509949 559.18852234 C239.4359462 560.80049639 241.06391786 562.41538361 242.68920898 564.03295898 C245.18569727 566.50996058 247.70267856 568.96484177 250.22070312 571.41992188 C251.80209461 572.98826015 253.38221722 574.55787912 254.9609375 576.12890625 C256.09823051 577.22915886 256.09823051 577.22915886 257.25849915 578.35163879 C257.94639023 579.04553207 258.63428131 579.73942535 259.34301758 580.4543457 C259.95494461 581.05898148 260.56687164 581.66361725 261.19734192 582.28657532 C262.37890625 584.203125 262.37890625 584.203125 262.15995789 586.78068542 C252.93875986 615.3803247 208.2837565 636.45019572 183.35546875 649.2890625 C180.07070616 650.95966903 176.7649025 652.58414818 173.44921875 654.19238281 C171.30307004 655.24014881 169.16937171 656.31097468 167.03515625 657.3828125 C122.91860186 679.25332934 72.85727651 688.452127 23.87890625 688.390625 C22.99017822 688.39002075 22.1014502 688.3894165 21.18579102 688.38879395 C8.14691488 688.36472398 -4.69895256 688.08727996 -17.62109375 686.203125 C-18.52504883 686.07953613 -19.42900391 685.95594727 -20.36035156 685.82861328 C-34.82620296 683.81472071 -48.79166614 680.53125738 -62.875 676.69140625 C-82.60657839 671.4152198 -100.12990246 675.30638734 -118.81640625 682.1484375 C-119.89240585 682.53922989 -120.96840546 682.93002228 -122.07701111 683.33265686 C-135.13019673 688.08999311 -148.13468171 692.97869162 -161.13766861 697.87111664 C-164.63644122 699.18706644 -168.13600257 700.5009154 -171.63549805 701.81494141 C-177.2866266 703.93710812 -182.93741073 706.06018884 -188.58789062 708.18408203 C-204.76923606 714.26613681 -220.95387312 720.33941865 -237.14321899 726.40014648 C-241.77248787 728.13371926 -246.39960113 729.87279616 -251.02386475 731.61967468 C-287.29878875 745.31579036 -287.29878875 745.31579036 -305.99609375 745.578125 C-306.99898437 745.61550781 -308.001875 745.65289063 -309.03515625 745.69140625 C-315.99784078 745.7734274 -320.18633462 744.56011874 -325.62109375 740.203125 C-326.73097656 739.37748047 -326.73097656 739.37748047 -327.86328125 738.53515625 C-334.45787427 732.39808284 -334.59815898 725.97747025 -334.9519043 717.30102539 C-335.44787981 693.05302905 -323.98157054 669.87392661 -315.43640709 647.64383507 C-310.47851372 634.74001137 -305.57699115 621.81567756 -300.7265625 608.87109375 C-300.29958667 607.73164149 -300.29958667 607.73164149 -299.86398506 606.56917 C-298.13425608 601.95196105 -296.40613139 597.33415289 -294.67858887 592.71612549 C-292.63771164 587.26085235 -290.59565941 581.80601957 -288.55252075 576.35159302 C-287.43215053 573.36045358 -286.31372672 570.3685972 -285.19674683 567.37619019 C-282.85790369 561.1170818 -280.5046696 554.86703496 -278.05322266 548.65087891 C-277.67651932 547.68974686 -277.29981598 546.72861481 -276.91169739 545.73835754 C-276.24459512 544.04451849 -275.5689264 542.35400783 -274.88163757 540.66825867 C-271.91314949 533.1174581 -270.64515817 526.04963923 -273.29296875 518.2265625 C-275.37396609 513.48923326 -277.95290332 509.05248352 -280.51074219 504.55932617 C-299.47494596 471.1133049 -311.41163722 433.76359416 -317.87109375 395.953125 C-318.09756592 394.64565308 -318.09756592 394.64565308 -318.32861328 393.31176758 C-321.11977437 375.99681394 -322.00212972 358.65522593 -321.93359375 341.140625 C-321.93177094 340.1641098 -321.92994812 339.1875946 -321.92807007 338.18148804 C-321.82678604 305.78016706 -317.51691945 274.12902034 -307.62109375 243.203125 C-307.33395508 242.30062012 -307.04681641 241.39811523 -306.75097656 240.46826172 C-291.75171325 193.97054546 -267.23512339 153.20604826 -235.95703125 116.0078125 C-233.78138092 113.39557682 -231.66285797 110.74796221 -229.55859375 108.078125 C-218.7037681 94.4771582 -206.45148329 81.78912021 -192.62109375 71.203125 C-192.08323242 70.78885254 -191.54537109 70.37458008 -190.99121094 69.94775391 C-139.02285034 30.13875164 -66.22794285 0.28518539 0 0 Z " fill="#000000" transform="translate(400.62109375,458.796875)"/>
<path d="M0 0 C19.8 0 39.6 0 60 0 C60.66759038 6.00831342 61.16490059 11.74532043 61.23414612 17.75099182 C61.2472512 18.58355922 61.26035628 19.41612662 61.27385849 20.27392334 C61.31631752 23.03747058 61.35262365 25.8010627 61.38891602 28.56469727 C61.41824749 30.55615278 61.44796131 32.54760269 61.47802734 34.53904724 C61.55829024 39.9267215 61.63322265 45.31445812 61.70718122 50.70222211 C61.78547979 56.33968892 61.86870416 61.97708299 61.95140076 67.61448669 C62.10713112 78.28142841 62.25844661 88.94842798 62.40816683 99.61545557 C62.57888302 111.7630042 62.75453485 123.9104799 62.93059647 136.05795205 C63.29254711 161.03855754 63.64831517 186.01924802 64 211 C64.6075412 210.25492691 65.2150824 209.50985382 65.84103394 208.74220276 C66.64356598 207.75936813 67.44609802 206.77653351 68.27294922 205.76391602 C69.06611542 204.79196793 69.85928162 203.82001984 70.67648315 202.81861877 C80.20518261 191.2595155 89.88721078 181.39145459 103 174 C103.63518555 173.63970703 104.27037109 173.27941406 104.92480469 172.90820312 C137.82539223 154.61355767 177.22377034 151.2577814 213.35546875 161.1328125 C238.54117597 169.0147644 261.97815369 186.18285382 274.80566406 209.53564453 C289.70285258 238.071948 292.5053909 269.90936811 292.34057617 301.59399414 C292.33972693 303.93262725 292.34021082 306.27126115 292.34190369 308.6098938 C292.34275347 314.87068308 292.32529524 321.13129481 292.30418181 327.39204335 C292.28716949 333.29862643 292.28429739 339.20520396 292.2812262 345.11180823 C292.27470609 356.78900849 292.25486752 368.46614486 292.22631836 380.14331055 C292.19866139 391.46752611 292.17748529 402.79172415 292.16479492 414.1159668 C292.16400675 414.81731666 292.16321858 415.51866653 292.16240653 416.24126942 C292.15849061 419.76072834 292.15469968 423.28018738 292.15097082 426.7996465 C292.12001367 455.86647968 292.06478702 484.93322016 292 514 C271.87 514 251.74 514 231 514 C230.94465088 507.69197266 230.88930176 501.38394531 230.83227539 494.88476562 C230.64859155 474.02182243 230.4602455 453.15892325 230.26950932 432.2960434 C230.15400214 419.64936741 230.04007728 407.00268094 229.92993164 394.35595703 C229.8338781 383.32773076 229.73480045 372.29953641 229.63215441 361.27136946 C229.57795363 355.43693649 229.52522444 349.60249892 229.4761219 343.76802063 C229.42976476 338.26545094 229.3793343 332.76293295 229.32591057 327.26042747 C229.30709979 325.25146491 229.28971956 323.24248831 229.2739563 321.23349953 C229.42896102 299.62906978 229.42896102 299.62906978 226.5 278.3125 C226.24887451 277.21204346 226.24887451 277.21204346 225.99267578 276.08935547 C223.78550048 267.2103642 220.10352113 258.95038473 216.24414062 250.68310547 C214.986714 247.97134749 213.78233517 245.23964219 212.578125 242.50390625 C208.0558581 232.52323152 204.15723335 225.11270135 194 220 C192.96746094 219.44441406 191.93492187 218.88882813 190.87109375 218.31640625 C180.50579893 213.11504892 169.55001731 210.58264182 158 210 C156.44925781 209.90332031 156.44925781 209.90332031 154.8671875 209.8046875 C128.85160587 208.91577241 106.56466937 221.73460762 88 239 C67.86021445 259.59837649 63.69105289 290.33435087 63.34375 317.74121094 C63.3119455 319.48280597 63.2790828 321.22438196 63.24523926 322.96593857 C63.16203859 327.43979461 63.09551304 331.91370801 63.03552246 336.38792992 C63.00127956 338.90591004 62.96371023 341.4238147 62.92480469 343.94172668 C62.76295923 354.48587528 62.63942014 365.03023702 62.52767944 375.57502079 C62.4799524 379.99883424 62.42831465 384.42260202 62.37695312 388.84637451 C62.21526118 402.83089082 62.05945199 416.81547127 61.90624237 430.80008292 C61.80452146 440.08188708 61.70031617 449.36365605 61.59148407 458.64537978 C61.53045547 463.86716698 61.47329677 469.08897669 61.41920471 474.31084013 C61.38474634 477.55093005 61.3466682 480.79097026 61.30761719 484.03100777 C61.2903959 485.51921249 61.2746254 487.00743491 61.26049805 488.49567223 C61.2408478 490.54318356 61.21574265 492.59056503 61.18945312 494.63800049 C61.17066101 496.34650618 61.17066101 496.34650618 61.15148926 498.08952713 C60.94565239 503.40290391 60.4415829 508.70100518 60 514 C40.2 514 20.4 514 0 514 C0 344.38 0 174.76 0 0 Z " fill="#000000" transform="translate(706,537)"/>
<path d="M0 0 C0.83273437 0.61617187 1.66546875 1.23234375 2.5234375 1.8671875 C24.74570378 21.00497518 34.87289138 52.87048199 37.17447555 81.14326715 C38.07340579 95.01238378 38.10736014 108.85918609 38.02172852 122.75097656 C38.01155682 125.05931399 38.00186641 127.36765358 37.99261475 129.67599487 C37.96642271 135.87712235 37.93358812 142.07819816 37.89946485 148.27928638 C37.86483164 154.78413432 37.83644064 161.28900959 37.80735779 167.79388428 C37.75781116 178.69073368 37.70448639 189.58755844 37.64819336 200.484375 C37.59027809 211.69725419 37.53469281 222.91014104 37.48217773 234.12304688 C37.47892802 234.81674937 37.4756783 235.51045187 37.4723301 236.22517565 C37.45603783 239.70603546 37.43979069 243.18689548 37.42356598 246.6677556 C37.28937263 275.44520689 37.14640337 304.222608 37 333 C18.19 333 -0.62 333 -20 333 C-22.30067568 308.84290541 -22.30067568 308.84290541 -23.125 299.1875 C-23.21136719 298.18525391 -23.29773437 297.18300781 -23.38671875 296.15039062 C-23.59198702 293.76699796 -23.79643539 291.38353866 -24 289 C-24.48726562 289.77601563 -24.97453125 290.55203125 -25.4765625 291.3515625 C-42.8009234 317.74758875 -69.67592408 333.8384255 -100.1875 340.8125 C-132.90791279 346.61105417 -171.02990481 342.73752148 -199.35058594 324.17431641 C-204.34389993 320.61927787 -208.65232065 316.2968293 -213 312 C-213.71671875 311.35546875 -214.4334375 310.7109375 -215.171875 310.046875 C-225.79641777 300.27229566 -232.43291805 287.50894767 -237 274 C-237.25394531 273.25363281 -237.50789063 272.50726562 -237.76953125 271.73828125 C-245.84377834 244.03025347 -240.71936206 205.73825571 -227.0390625 180.59375 C-226.36333856 179.39359309 -225.68383938 178.19555139 -225 177 C-224.40960937 175.9584375 -223.81921875 174.916875 -223.2109375 173.84375 C-213.57038141 157.82017732 -197.71327486 147.54560248 -181.00732422 139.91748047 C-179.01707777 139.00780567 -177.04206435 138.06976608 -175.06640625 137.12890625 C-161.07122009 130.58981517 -146.89009389 127.17845012 -131.6796875 124.67578125 C-129.73663727 124.35440437 -129.73663727 124.35440437 -127.7543335 124.02653503 C-112.07978636 121.4603927 -96.34758223 119.29647024 -80.61279297 117.13763428 C-77.43645958 116.70055203 -74.26082424 116.2585086 -71.08516693 115.81654549 C-28.03642974 109.82915428 -28.03642974 109.82915428 -20 110 C-20.28230469 108.92234375 -20.56460937 107.8446875 -20.85546875 106.734375 C-21.71475133 103.30328004 -22.44094928 99.86307016 -23.11328125 96.390625 C-26.20240718 80.45119932 -29.89699016 67.87185501 -39.73339844 54.71923828 C-41.05137591 52.93026423 -42.31031859 51.10751577 -43.5703125 49.27734375 C-52.11841942 37.21489264 -62.5070651 32.6682357 -77 30 C-120.66234691 23.71227028 -161.94492865 41.95868026 -197.13623047 66.13964844 C-197.86986816 66.64012695 -198.60350586 67.14060547 -199.359375 67.65625 C-200.34115723 68.33397461 -200.34115723 68.33397461 -201.34277344 69.02539062 C-203 70 -203 70 -205 70 C-205 49.21 -205 28.42 -205 7 C-182.88495413 -4.63949783 -182.88495413 -4.63949783 -174.75 -7.6875 C-173.32095337 -8.23229004 -173.32095337 -8.23229004 -171.86303711 -8.78808594 C-116.83639284 -29.3886605 -49.64023783 -38.0672205 0 0 Z M-47.64453125 159.79296875 C-49.02569919 159.98330264 -50.40694201 160.17309383 -51.78825378 160.36238098 C-54.67077782 160.75941726 -57.55234291 161.1626601 -60.43334961 161.57055664 C-64.04741168 162.08179064 -67.66335838 162.57784562 -71.2801218 163.06955242 C-125.48421599 168.83300666 -125.48421599 168.83300666 -170.375 196.625 C-180.25324318 211.24251592 -181.65272966 230.97478875 -179 248 C-177.82816694 252.34696579 -176.18907405 256.075546 -174 260 C-173.22269531 261.43085937 -173.22269531 261.43085937 -172.4296875 262.890625 C-168.55355913 269.48905748 -164.08416879 274.3854372 -158 279 C-156.78376953 279.92619141 -156.78376953 279.92619141 -155.54296875 280.87109375 C-138.04455687 293.07013652 -115.29714903 294.70549622 -94.8125 291.3515625 C-71.64972267 286.99904061 -51.19210911 271.75596196 -37.72338867 252.76220703 C-22.1136526 229.7656939 -19.61554736 204.1005625 -19.875 177 C-19.88506285 175.14583824 -19.89418279 173.29167111 -19.90234375 171.4375 C-19.92406561 166.95819727 -19.9584078 162.47916047 -20 158 C-29.38452148 157.74599869 -38.35830205 158.47793464 -47.64453125 159.79296875 Z " fill="#000000" transform="translate(1270,718)"/>
<path d="M0 0 C0 33.99 0 67.98 0 103 C28.71 103 57.42 103 87 103 C87 119.83 87 136.66 87 154 C58.29 154 29.58 154 0 154 C0.29341292 178.63673836 0.29341292 178.63673836 0.59008789 203.2734375 C0.84184008 224.65286664 1.03778098 246.0316215 1.15094954 267.41226786 C1.19696602 276.06380928 1.25197362 284.71529639 1.30649471 293.36678791 C1.35477703 301.20895066 1.3899648 309.05104321 1.41624928 316.89330864 C1.43588157 321.83722386 1.46766742 326.7810095 1.50256538 331.72483826 C1.5162838 334.02895127 1.52493329 336.33310107 1.52805901 338.63725281 C1.55425122 355.48793347 2.81232465 368.74407008 10.5625 384 C11.54411925 385.9785963 12.52462909 387.95774347 13.50390625 389.9375 C13.93517822 390.79214844 14.3664502 391.64679688 14.81079102 392.52734375 C16 395 16 395 17.05151367 397.75146484 C17.78205845 400.08758624 17.78205845 400.08758624 19.671875 401.0390625 C22.10990167 401.72647603 24.53901786 402.39751889 27 403 C28.66095703 403.41958984 28.66095703 403.41958984 30.35546875 403.84765625 C47.40775201 407.84573793 62.34340084 405.10634821 78.50415039 398.98193359 C81.48627694 397.85283069 83.7802466 397 87 397 C87 413.83 87 430.66 87 448 C57.31898265 459.87240694 20.88266494 464.66678453 -10 453 C-15.49885368 450.64031833 -20.78492768 447.92893015 -26 445 C-27.2065625 444.32710937 -27.2065625 444.32710937 -28.4375 443.640625 C-43.99129167 433.48048689 -54.12795937 408.21552172 -57.93359375 390.95703125 C-60.90119123 376.33576892 -61.14144695 361.97033725 -61.11352539 347.10668945 C-61.11324298 344.99671937 -61.11340231 342.8867492 -61.1139679 340.77677917 C-61.11425375 335.07512438 -61.10839128 329.37349079 -61.10139394 323.67184091 C-61.09512511 317.70344416 -61.09455381 311.73504687 -61.09336853 305.76664734 C-61.0902656 294.47639863 -61.08206624 283.18615965 -61.07201904 271.89591521 C-61.06082561 259.03738128 -61.05533932 246.17884687 -61.05032361 233.32030928 C-61.03988274 206.88019956 -61.0215502 180.44010316 -61 154 C-80.47 154 -99.94 154 -120 154 C-120 137.17 -120 120.34 -120 103 C-100.53 103 -81.06 103 -61 103 C-61 74.95 -61 46.9 -61 18 C-11.15384615 0 -11.15384615 0 0 0 Z " fill="#000000" transform="translate(1445,600)"/>
<path d="M0 0 C8.66594866 7.49338317 14.72013908 14.35326561 16 26 C17.00364978 41.64712642 15.66868838 54.39752729 5.4765625 66.86328125 C-1.83103527 74.9016388 -10.87401221 79.53209337 -21.62890625 80.23828125 C-36.16629096 80.51257153 -48.80531031 77.3709627 -59.75390625 67.30859375 C-68.08426517 58.74643354 -72.59337859 49.82119179 -72.4375 37.875 C-72.42920166 37.04895264 -72.42090332 36.22290527 -72.41235352 35.37182617 C-72.13804544 25.27904605 -70.54894282 15.2124623 -63.109375 7.8046875 C-45.62820432 -7.15142519 -20.00203962 -15.60868576 0 0 Z " fill="#000000" transform="translate(435,772)"/>
<path d="M0 0 C0.74378906 -0.00644531 1.48757813 -0.01289062 2.25390625 -0.01953125 C13.39970824 0.39918403 22.55347353 9.46497491 30 17 C39.56619884 27.38516304 38.64151316 38.85236366 38.17480469 52.37304688 C37.61573549 60.77470135 35.03988884 68.16570936 29.04296875 74.2265625 C17.2170688 84.49225768 5.57629182 88.88672768 -10 88 C-21.05504068 86.67144495 -31.49092736 83.08587358 -39.375 74.875 C-48.65362215 62.6865141 -50.97617054 48.88660069 -50 34 C-48.55325796 23.76272756 -40.72637238 15.0102663 -33.125 8.5 C-23.17346367 1.05569366 -12.09679451 -0.35414344 0 0 Z " fill="#000000" transform="translate(536,764)"/>
<path d="M0 0 C7.60705944 6.35117699 14.54844661 14.39823278 15.875 24.5625 C15.94290293 26.04069462 15.98442451 27.52032857 16 29 C16.04898438 29.75539063 16.09796875 30.51078125 16.1484375 31.2890625 C16.63467651 42.77178368 14.18451666 54.83007007 6.71875 63.71484375 C-1.29197611 72.28954339 -10.30300271 78.47229421 -22.34765625 79.203125 C-35.15391226 79.36471814 -45.38818124 77.51132215 -56 70 C-56.64839844 69.54753906 -57.29679688 69.09507812 -57.96484375 68.62890625 C-66.02265462 62.40482039 -70.55459726 52.93863702 -72 43 C-73.15302684 29.7761258 -72.18528648 18.3872218 -63.4921875 7.76953125 C-62.99976563 7.18558594 -62.50734375 6.60164062 -62 6 C-61.236875 4.96875 -60.47375 3.9375 -59.6875 2.875 C-44.43086953 -13.44604655 -17.03934771 -13.02862406 0 0 Z " fill="#000000" transform="translate(311,773)"/>
</svg>
