<?xml version="1.0" encoding="UTF-8"?>
<svg version="1.1" xmlns="http://www.w3.org/2000/svg" width="800" height="800">
<path d="M0 0 C1.68584952 0.85730409 3.37172359 1.71455992 5.05761719 2.57177734 C13.83513785 7.03850321 22.60441564 11.52112487 31.36653137 16.01799011 C40.42759715 20.66813797 49.50181212 25.28514591 58.625 29.8125 C65.83541887 33.39238009 72.97601854 37.0774936 80.08056641 40.86254883 C88.31458414 45.21916744 96.66098904 49.34933468 105 53.5 C123.09339929 62.50597932 123.09339929 62.50597932 131.375 66.9375 C140.48880017 71.81312467 149.74825903 76.39371584 159 81 C168.95039346 85.95413133 178.88228586 90.91933987 188.68359375 96.1640625 C197.45976092 100.82887208 206.38247426 105.20612191 215.27935791 109.634552 C224.10259312 114.02809262 232.88942816 118.46526646 241.58203125 123.11328125 C249.64413287 127.39493025 257.82848392 131.43262213 266 135.5 C284.09471208 144.5066818 284.09471208 144.5066818 292.375 148.9375 C302.2828779 154.23793374 312.36193321 159.19715018 322.41973877 164.20474243 C331.60983519 168.78205049 340.770212 173.39193071 349.82421875 178.234375 C358.17793305 182.6755902 366.66688865 186.84864249 375.13641357 191.06307983 C382.92665448 194.94117783 390.69952114 198.83533532 398.375 202.9375 C407.16289315 207.63307185 416.08099867 212.06057856 425 216.5 C443.09444976 225.50654143 443.09444976 225.50654143 451.375 229.9375 C460.4888003 234.81312474 469.74826075 239.39371226 479 244 C488.90582686 248.9319598 498.79491613 253.8716537 508.54956055 259.09814453 C516.09453436 263.11008068 523.75887315 266.88048883 531.41143799 270.68145752 C574.60893825 292.15447711 574.60893825 292.15447711 584 301 C584.60070312 301.52335937 585.20140625 302.04671875 585.8203125 302.5859375 C598.10124288 313.87558202 608.3162699 331.63960673 609.31640625 348.3515625 C610.06897855 369.13364391 604.11172059 387.4200079 590 403 C589.04287109 404.06154297 589.04287109 404.06154297 588.06640625 405.14453125 C583.28614248 410.17486918 577.97235358 414.44767073 572 418 C571.34 418 570.68 418 570 418 C569.67 418.99 569.34 419.98 569 421 C568.01 420.67 567.02 420.34 566 420 C565.67 420.99 565.34 421.98 565 423 C564.01 423 563.02 423 562 423 C560.18208576 423.68707669 560.18208576 423.68707669 558.26309109 424.68667603 C557.5059379 425.06288275 556.7487847 425.43908947 555.96868747 425.8266964 C555.13834541 426.24691881 554.30800334 426.66714123 553.45249939 427.10009766 C552.56929994 427.54112131 551.68610048 427.98214497 550.77613741 428.43653297 C547.80222222 429.92336098 544.83268993 431.41874159 541.86303711 432.9140625 C539.73805134 433.97861444 537.61279562 435.04262767 535.48728943 436.10614014 C530.30517809 438.70064707 525.12581595 441.30058107 519.9475252 443.90270376 C513.92131334 446.93043385 507.89138085 449.95071806 501.86110551 452.97034478 C491.10467615 458.35672453 480.35064515 463.74787372 469.59838867 469.14257812 C468.95463701 469.46556452 468.31088534 469.78855092 467.64762605 470.12132478 C465.03901521 471.43013827 462.43040834 472.73895966 459.82180711 474.04779232 C452.63867388 477.65177794 445.45506428 481.25481348 438.27124023 484.85742188 C437.62796817 485.1800174 436.9846961 485.50261292 436.32193094 485.83498406 C425.6084343 491.2075693 414.89334917 496.57698013 404.1772843 501.94444084 C398.15750534 504.95983289 392.13870068 507.9771435 386.12208366 510.99884033 C380.46766523 513.83862884 374.8115359 516.6749778 369.15404701 519.5086441 C367.07236392 520.55216779 364.99137803 521.59708356 362.91112518 522.64345551 C360.08273537 524.06592313 357.25196058 525.48352562 354.42051697 526.89990234 C353.17165778 527.53023597 353.17165778 527.53023597 351.89756912 528.1733036 C346.22815716 531 346.22815716 531 344 531 C343.67 531.99 343.34 532.98 343 534 C342.01 533.67 341.02 533.34 340 533 C339.67 533.99 339.34 534.98 339 536 C338.01 536.33 337.02 536.66 336 537 C335.34 536.67 334.68 536.34 334 536 C334 536.99 334 537.98 334 539 C332.68 538.67 331.36 538.34 330 538 C329.67 538.99 329.34 539.98 329 541 C327.33333333 541 325.66666667 541 324 541 C323.67 541.99 323.34 542.98 323 544 C321.2578125 545.16796875 321.2578125 545.16796875 319.125 546.1875 C318.42632812 546.53167969 317.72765625 546.87585938 317.0078125 547.23046875 C315 548 315 548 312 548 C309.69143945 549.01275047 307.46299178 550.07301619 305.21711731 551.21105957 C304.17664947 551.72937104 304.17664947 551.72937104 303.11516207 552.25815344 C300.78197145 553.42227019 298.45318413 554.5949369 296.12426758 555.76757812 C294.45548335 556.60239323 292.78643489 557.43668033 291.11714172 558.27047729 C286.57236458 560.54243406 282.03133681 562.82179526 277.49091935 565.10244942 C272.73060599 567.49198249 267.96689421 569.87472088 263.20353699 572.25817871 C254.16088369 576.78417656 245.12130469 581.31627976 236.08280629 585.85056829 C225.86097375 590.97813593 215.63581894 596.09906079 205.41033709 601.21934605 C187.89517711 609.98997955 170.38239242 618.76533938 152.8727417 627.54696655 C151.39305843 628.28901598 149.91336805 629.03105125 148.43367004 629.77307129 C147.72728728 630.12731391 147.02090451 630.48155653 146.29311621 630.84653378 C142.74067869 632.62758629 139.18732563 634.40678239 135.63248253 636.18302917 C134.9203887 636.53884111 134.20829486 636.89465304 133.47462243 637.26124716 C132.14543648 637.92521581 130.81613379 638.58895086 129.48667985 639.25238276 C123.87449412 642.05544963 118.28316764 644.89879373 112.6953125 647.75 C110 649 110 649 108 649 C107.67 649.99 107.34 650.98 107 652 C106.34 652 105.68 652 105 652 C102.12557004 653.14909951 99.35485081 654.5404041 96.5625 655.875 C95.45551758 656.39320313 95.45551758 656.39320313 94.32617188 656.921875 C88.83435299 659.53060142 83.46048604 662.33407831 78.09375 665.1875 C64.11002697 672.60317343 49.92611068 679.63059655 35.76928711 686.70800781 C31.69758532 688.74380708 27.62870284 690.78517774 23.56043148 692.82782173 C20.40921336 694.40896548 17.25620399 695.98650991 14.10266304 697.56301498 C12.59926643 698.31530318 11.09651802 699.06888823 9.59443474 699.82379532 C7.51526273 700.8682481 5.43364955 701.90766419 3.35131836 702.94580078 C2.73380707 703.25736618 2.11629578 703.56893158 1.48007202 703.88993835 C-2.77165572 706 -2.77165572 706 -5 706 C-5.33 706.66 -5.66 707.32 -6 708 C-8.52686602 709.27521327 -11.03105949 710.44123338 -13.625 711.5625 C-14.32496094 711.87896484 -15.02492188 712.19542969 -15.74609375 712.52148438 C-20.20455102 714.46947452 -24.15459301 715.53580747 -29 716 C-29 716.99 -29 717.98 -29 719 C-29.99 719 -30.98 719 -32 719 C-32 718.34 -32 717.68 -32 717 C-32.391875 717.495 -32.78375 717.99 -33.1875 718.5 C-35.55091715 720.45593143 -37.01435003 720.24207973 -40 720 C-40 719.34 -40 718.68 -40 718 C-42.22942748 718.14179038 -44.45853628 718.28859698 -46.6875 718.4375 C-47.92886719 718.51871094 -49.17023438 718.59992187 -50.44921875 718.68359375 C-53.38180337 718.94491317 -56.13441617 719.34798379 -59 720 C-59.495 718.515 -59.495 718.515 -60 717 C-60.93005859 716.97873047 -60.93005859 716.97873047 -61.87890625 716.95703125 C-70.99687795 716.46596145 -80.20390932 714.05931936 -88.31640625 709.77734375 C-88.87199219 709.52082031 -89.42757812 709.26429688 -90 709 C-90.66 709.33 -91.32 709.66 -92 710 C-92 709.01 -92 708.02 -92 707 C-93.08861328 706.60941406 -93.08861328 706.60941406 -94.19921875 706.2109375 C-103.09982613 702.36269721 -108.50826167 695.45353395 -113.40625 687.34375 C-114.19515625 686.18359375 -114.19515625 686.18359375 -115 685 C-115.66 685 -116.32 685 -117 685 C-117.16822266 683.94619141 -117.16822266 683.94619141 -117.33984375 682.87109375 C-118.30541239 678.67172717 -120.16045413 674.94517861 -121.94140625 671.03515625 C-123.06159262 667.82340419 -123.19614382 665.3746796 -123 662 C-123.66 661.67 -124.32 661.34 -125 661 C-125.088797 657.10431616 -125.14098243 653.20889986 -125.1875 649.3125 C-125.21263672 648.22904297 -125.23777344 647.14558594 -125.26367188 646.02929688 C-125.38904509 631.94570616 -120.95479265 619.23859144 -116.69726562 605.95898438 C-116.34986328 604.85748047 -116.00246094 603.75597656 -115.64453125 602.62109375 C-115.32846924 601.6355249 -115.01240723 600.64995605 -114.68676758 599.63452148 C-113.83183312 596.80865261 -113.83183312 596.80865261 -114 593 C-113.34 593 -112.68 593 -112 593 C-111.83564453 592.09121094 -111.83564453 592.09121094 -111.66796875 591.1640625 C-110.63690061 585.71532842 -109.31922514 580.49507046 -107.5859375 575.2265625 C-106.8303378 572.73901182 -106.8303378 572.73901182 -107 569 C-106.34 569 -105.68 569 -105 569 C-104.78013428 567.73285156 -104.56026855 566.46570313 -104.33374023 565.16015625 C-102.65186639 556.77912859 -100.07970896 548.62810501 -97.66015625 540.4375 C-97.13174991 538.63739574 -96.60371586 536.83718216 -96.07603455 535.03686523 C-94.69184587 530.31816983 -93.30248542 525.60101265 -91.91204834 520.88415527 C-90.50384849 516.10341847 -89.10085199 511.32115537 -87.69726562 506.5390625 C-85.87259194 500.3252202 -84.04733366 494.11155044 -82.21742916 487.89924622 C-81.75547618 486.33073119 -81.29411234 484.76204251 -80.83340549 483.19316101 C-79.42935597 478.42041238 -77.98321521 473.66308879 -76.46385193 468.92553711 C-75.84386971 466.68197681 -75.84386971 466.68197681 -76 463 C-75.34 463 -74.68 463 -74 463 C-73.89042969 462.39414062 -73.78085938 461.78828125 -73.66796875 461.1640625 C-72.63690061 455.71532842 -71.31922514 450.49507046 -69.5859375 445.2265625 C-68.8303378 442.73901182 -68.8303378 442.73901182 -69 439 C-68.34 439 -67.68 439 -67 439 C-66.89985596 438.44417236 -66.79971191 437.88834473 -66.6965332 437.31567383 C-65.24810803 429.66301933 -63.2759456 422.18781217 -61.1875 414.6875 C-60.85685547 413.43904297 -60.52621094 412.19058594 -60.18554688 410.90429688 C-59.84974609 409.70224609 -59.51394531 408.50019531 -59.16796875 407.26171875 C-58.87172607 406.17850342 -58.5754834 405.09528809 -58.27026367 403.97924805 C-56.51067199 399.85234101 -53.83605794 397.22403863 -50.125 394.75 C-44.79869965 392.87012929 -38.94350422 392.79382899 -33.34180737 392.47648716 C-32.59890712 392.43203479 -31.85600687 392.38758243 -31.0905945 392.34178302 C-28.60565155 392.19380172 -26.12048544 392.04998474 -23.63529968 391.90614319 C-21.83383249 391.79971393 -20.03238068 391.6930239 -18.23094302 391.58609575 C-13.28372743 391.29317511 -8.33630589 391.00387181 -3.38884461 390.71513474 C1.94814175 390.4030115 7.28492727 390.08749019 12.62173462 389.77232361 C21.86941496 389.22660564 31.11720973 388.68286299 40.36507607 388.14030647 C54.98257048 387.28258533 69.59972983 386.41923457 84.21684265 385.55503845 C89.21834442 385.25941316 94.21984886 384.96383307 99.22135448 384.66827297 C100.471255 384.59441074 101.72115551 384.5205485 103.00893179 384.44444801 C117.23432568 383.60390409 131.4598007 382.76473684 145.68530273 381.92602539 C146.98561977 381.84935953 148.28593681 381.77269367 149.6256574 381.6937046 C170.70242554 380.45114992 191.7793841 379.21184746 212.8563839 377.97322948 C234.49669347 376.70137201 256.13668086 375.42412618 277.77640599 374.14236349 C291.12365867 373.35198968 304.471161 372.56611041 317.81901743 371.78599798 C326.96555169 371.25106778 336.11177767 370.71106773 345.25777737 370.16707499 C350.53468257 369.85337546 355.81169743 369.54197621 361.08909798 369.23671341 C365.92240111 368.95709433 370.75527552 368.67098915 375.58789339 368.37977331 C377.33400465 368.27569715 379.0802589 368.17398653 380.82666115 368.07491303 C395.41801245 367.7670147 395.41801245 367.7670147 409 363.3125 C413.39431979 358.23156774 413.22329657 352.36395214 413 346 C412.34 345.67 411.68 345.34 411 345 C410.7525 344.38125 410.505 343.7625 410.25 343.125 C408.34140096 339.88038163 406.54914436 339.24531381 403 338 C399.31809298 337.7619675 395.68359909 337.82302994 392 338 C392 337.34 392 336.68 392 336 C386.72 336.33 381.44 336.66 376 337 C376 336.34 376 335.68 376 335 C374.35451172 335.12568359 374.35451172 335.12568359 372.67578125 335.25390625 C371.22137904 335.35712189 369.76695049 335.45996694 368.3125 335.5625 C367.59126953 335.61857422 366.87003906 335.67464844 366.12695312 335.73242188 C362.2010499 336.00131936 358.82788591 335.87097213 355 335 C354.67 335.33 354.34 335.66 354 336 C349.19539247 336.23629217 346.23091496 336.33429791 342 334 C339.33290931 333.83249586 339.33290931 333.83249586 337 334 C337 334.33 337 334.66 337 335 C335.14375 335.061875 335.14375 335.061875 333.25 335.125 C332.55390625 335.14820313 331.8578125 335.17140625 331.140625 335.1953125 C329 335 329 335 327.17773438 334.01367188 C324.65566631 332.8397227 322.78789624 332.68736206 320.015625 332.5859375 C319.08105469 332.54726563 318.14648438 332.50859375 317.18359375 332.46875 C316.21550781 332.4378125 315.24742187 332.406875 314.25 332.375 C313.26644531 332.33632813 312.28289062 332.29765625 311.26953125 332.2578125 C308.84653963 332.16371574 306.42355204 332.07807672 304 332 C304 332.33 304 332.66 304 333 C302.5629191 333.05422947 301.12524538 333.09289723 299.6875 333.125 C298.88699219 333.14820313 298.08648437 333.17140625 297.26171875 333.1953125 C295 333 295 333 292 331 C290.0103005 330.60986284 288.00980131 330.26797351 286 330 C286 330.66 286 331.32 286 332 C279.48704534 332.25049826 279.48704534 332.25049826 277.09082031 331.01806641 C274.54893985 329.78036889 272.61547819 329.68426087 269.796875 329.5859375 C268.8171875 329.54726563 267.8375 329.50859375 266.828125 329.46875 C265.81234375 329.4378125 264.7965625 329.406875 263.75 329.375 C262.71875 329.33632813 261.6875 329.29765625 260.625 329.2578125 C258.0835106 329.16368326 255.54202567 329.07805021 253 329 C253 329.33 253 329.66 253 330 C251.1128125 330.061875 251.1128125 330.061875 249.1875 330.125 C248.47980469 330.14820313 247.77210938 330.17140625 247.04296875 330.1953125 C245 330 245 330 242 328 C238.87478167 327.83300768 238.87478167 327.83300768 236 328 C236 328.33 236 328.66 236 329 C233.69 329 231.38 329 229 329 C229 328.67 229 328.34 229 328 C217.05949805 325.28313627 204.18815299 325.85413115 192 326 C192 325.34 192 324.68 192 324 C190.02 324.33 188.04 324.66 186 325 C186 325.33 186 325.66 186 326 C178.1021611 326.2632613 178.1021611 326.2632613 174 324 C171.33290931 323.83249586 171.33290931 323.83249586 169 324 C169 324.33 169 324.66 169 325 C165.7 325 162.4 325 159 325 C158.67 324.01 158.34 323.02 158 322 C156.02 322.33 154.04 322.66 152 323 C152 323.33 152 323.66 152 324 C145.44357639 324.25217014 145.44357639 324.25217014 143.2890625 323.02734375 C139.85420242 321.48575979 136.33165769 321.56806097 132.625 321.4375 C127.66649551 321.2351999 122.88918372 320.9390337 118 320 C118 320.66 118 321.32 118 322 C111.48704534 322.25049826 111.48704534 322.25049826 109.09082031 321.01806641 C106.54893985 319.78036889 104.61547819 319.68426087 101.796875 319.5859375 C100.8171875 319.54726563 99.8375 319.50859375 98.828125 319.46875 C97.81234375 319.4378125 96.7965625 319.406875 95.75 319.375 C94.71875 319.33632813 93.6875 319.29765625 92.625 319.2578125 C90.0835106 319.16368326 87.54202567 319.07805021 85 319 C85 319.33 85 319.66 85 320 C83.1128125 320.061875 83.1128125 320.061875 81.1875 320.125 C80.47980469 320.14820313 79.77210938 320.17140625 79.04296875 320.1953125 C77 320 77 320 74 318 C70.87478167 317.83300768 70.87478167 317.83300768 68 318 C68 318.33 68 318.66 68 319 C65.69 319 63.38 319 61 319 C61 318.67 61 318.34 61 318 C58.03 317.67 55.06 317.34 52 317 C52 317.33 52 317.66 52 318 C48.37 318 44.74 318 41 318 C40.67 317.34 40.34 316.68 40 316 C34.72 316 29.44 316 24 316 C24 315.34 24 314.68 24 314 C22.17662109 314.12568359 22.17662109 314.12568359 20.31640625 314.25390625 C18.73178879 314.35704703 17.14715235 314.45989661 15.5625 314.5625 C14.76005859 314.61857422 13.95761719 314.67464844 13.13085938 314.73242188 C11.08937889 314.8616295 9.04453631 314.9351273 7 315 C6.67 314.67 6.34 314.34 6 314 C4.33382885 313.95936168 2.66611905 313.957279 1 314 C1 314.33 1 314.66 1 315 C-0.8871875 315.061875 -0.8871875 315.061875 -2.8125 315.125 C-3.52019531 315.14820313 -4.22789062 315.17140625 -4.95703125 315.1953125 C-7 315 -7 315 -10 313 C-13.12521833 312.83300768 -13.12521833 312.83300768 -16 313 C-16 313.33 -16 313.66 -16 314 C-20.40095836 314.16926763 -23.12714373 314.00320152 -27 312 C-28.33350785 312.33263448 -29.66680317 312.66612114 -31 313 C-32.91561254 313.06688591 -34.83335592 313.08531719 -36.75 313.0625 C-37.73484375 313.05347656 -38.7196875 313.04445313 -39.734375 313.03515625 C-40.85585937 313.01775391 -40.85585937 313.01775391 -42 313 C-42.33 312.34 -42.66 311.68 -43 311 C-44.92152759 310.29543988 -46.84581258 309.59464716 -48.796875 308.9765625 C-52.97376838 307.12510267 -55.50734709 305.08315748 -57.41723633 300.8840332 C-57.78099365 299.68093506 -58.14475098 298.47783691 -58.51953125 297.23828125 C-58.72286575 296.58152908 -58.92620026 295.92477692 -59.13569641 295.24812317 C-59.77415027 293.17014019 -60.3879561 291.0858958 -61 289 C-61.40039601 287.67722785 -61.80190794 286.35479291 -62.20458984 285.03271484 C-63.19678084 281.75263975 -64.16098228 278.46516637 -65.11254883 275.1730957 C-65.69281062 273.16915977 -66.28075976 271.16758081 -66.86914062 269.16601562 C-68.74268587 262.73597829 -70.46940856 256.37408492 -71.51879883 249.7512207 C-71.67759521 249.17331787 -71.8363916 248.59541504 -72 248 C-72.66 247.67 -73.32 247.34 -74 247 C-74.52294922 245.08178711 -74.52294922 245.08178711 -74.9296875 242.58984375 C-75.92867986 237.0992957 -77.4523573 231.88054342 -79.125 226.5625 C-79.67308708 224.81499444 -80.21752873 223.06634013 -80.7578125 221.31640625 C-80.9964502 220.55787354 -81.23508789 219.79934082 -81.48095703 219.01782227 C-82 217 -82 217 -82 214 C-82.66 213.67 -83.32 213.34 -84 213 C-84.51306152 211.12902832 -84.51306152 211.12902832 -84.91210938 208.67382812 C-85.99963731 202.71645681 -87.65859617 197.01179418 -89.40625 191.21875 C-89.73161743 190.12461792 -90.05698486 189.03048584 -90.39221191 187.90319824 C-91.42391993 184.43418983 -92.46123362 180.96690089 -93.5 177.5 C-94.86970346 172.92859082 -96.2334897 168.35547681 -97.59375 163.78125 C-97.90526001 162.74867065 -98.21677002 161.71609131 -98.53771973 160.65222168 C-100.19216538 155.08664924 -101.55493295 149.6052718 -102.48693848 143.87097168 C-102.65624878 143.25355103 -102.82555908 142.63613037 -103 142 C-103.66 141.67 -104.32 141.34 -105 141 C-105.52294922 139.08178711 -105.52294922 139.08178711 -105.9296875 136.58984375 C-106.92867986 131.0992957 -108.4523573 125.88054342 -110.125 120.5625 C-110.67308708 118.81499444 -111.21752873 117.06634013 -111.7578125 115.31640625 C-111.9964502 114.55787354 -112.23508789 113.79934082 -112.48095703 113.01782227 C-113 111 -113 111 -113 108 C-113.66 107.67 -114.32 107.34 -115 107 C-115.52734375 105.03125 -115.52734375 105.03125 -115.9375 102.5 C-116.71742412 98.14490373 -117.87058893 94.14921188 -119.4140625 90.0078125 C-120 88 -120 88 -120 84 C-120.66 83.67 -121.32 83.34 -122 83 C-123.52250148 77.48328169 -124.30915555 71.71937774 -124 66 C-124.66 65.67 -125.32 65.34 -126 65 C-125.61768977 47.41372942 -123.11085575 32.78913252 -115 17 C-114.34 17 -113.68 17 -113 17 C-112.67 15.68 -112.34 14.36 -112 13 C-111.34 13 -110.68 13 -110 13 C-109.773125 12.443125 -109.54625 11.88625 -109.3125 11.3125 C-107.63832737 8.36276727 -105.42167689 6.3626116 -103 4 C-102.505 3.278125 -102.01 2.55625 -101.5 1.8125 C-99.54907757 -0.5448646 -97.87760293 -0.93653805 -95 -2 C-93.59540022 -2.77600661 -92.20047345 -3.56963269 -90.8125 -4.375 C-60.58000832 -21.28132758 -29.21566178 -14.89269826 0 0 Z M349 334 C349 334.33 349 334.66 349 335 C350.65 335 352.3 335 354 335 C354 334.67 354 334.34 354 334 C352.35 334 350.7 334 349 334 Z " fill="#0083FF" transform="translate(158,48)"/>
<path d="M0 0 C0.33 0 0.66 0 1 0 C1 6.27 1 12.54 1 19 C0.67 19 0.34 19 0 19 C0 12.73 0 6.46 0 0 Z " fill="#0085FF" transform="translate(31,685)"/>
<path d="M0 0 C0.33 0 0.66 0 1 0 C1 5.61 1 11.22 1 17 C0.67 17 0.34 17 0 17 C0 11.39 0 5.78 0 0 Z " fill="#0085FF" transform="translate(768,393)"/>
<path d="M0 0 C0.33 0 0.66 0 1 0 C1 5.61 1 11.22 1 17 C0.67 17 0.34 17 0 17 C0 11.39 0 5.78 0 0 Z " fill="#0085FF" transform="translate(31,96)"/>
<path d="M0 0 C3.3 0 6.6 0 10 0 C10 0.33 10 0.66 10 1 C6.7 1 3.4 1 0 1 C0 0.67 0 0.34 0 0 Z " fill="#0085FF" transform="translate(285,370)"/>
<path d="M0 0 C2.97 0 5.94 0 9 0 C9 0.33 9 0.66 9 1 C6.03 1 3.06 1 0 1 C0 0.67 0 0.34 0 0 Z " fill="#0085FF" transform="translate(121,439)"/>
<path d="M0 0 C2.97 0 5.94 0 9 0 C9 0.33 9 0.66 9 1 C6.03 1 3.06 1 0 1 C0 0.67 0 0.34 0 0 Z " fill="#0085FF" transform="translate(205,434)"/>
<path d="M0 0 C2.97 0 5.94 0 9 0 C9 0.33 9 0.66 9 1 C6.03 1 3.06 1 0 1 C0 0.67 0 0.34 0 0 Z " fill="#0085FF" transform="translate(238,432)"/>
<path d="M0 0 C2.97 0 5.94 0 9 0 C9 0.33 9 0.66 9 1 C6.03 1 3.06 1 0 1 C0 0.67 0 0.34 0 0 Z " fill="#0085FF" transform="translate(255,431)"/>
<path d="M0 0 C2.97 0 5.94 0 9 0 C9 0.33 9 0.66 9 1 C6.03 1 3.06 1 0 1 C0 0.67 0 0.34 0 0 Z " fill="#0085FF" transform="translate(289,429)"/>
<path d="M0 0 C2.97 0 5.94 0 9 0 C9 0.33 9 0.66 9 1 C6.03 1 3.06 1 0 1 C0 0.67 0 0.34 0 0 Z " fill="#0085FF" transform="translate(373,424)"/>
<path d="M0 0 C2.97 0 5.94 0 9 0 C9 0.33 9 0.66 9 1 C6.03 1 3.06 1 0 1 C0 0.67 0 0.34 0 0 Z " fill="#0085FF" transform="translate(457,419)"/>
<path d="M0 0 C2.97 0 5.94 0 9 0 C9 0.33 9 0.66 9 1 C6.03 1 3.06 1 0 1 C0 0.67 0 0.34 0 0 Z " fill="#0085FF" transform="translate(507,416)"/>
<path d="M0 0 C2.97 0 5.94 0 9 0 C9 0.33 9 0.66 9 1 C6.03 1 3.06 1 0 1 C0 0.67 0 0.34 0 0 Z " fill="#0085FF" transform="translate(541,414)"/>
<path d="M0 0 C2.97 0 5.94 0 9 0 C9 0.33 9 0.66 9 1 C6.03 1 3.06 1 0 1 C0 0.67 0 0.34 0 0 Z " fill="#0085FF" transform="translate(537,385)"/>
<path d="M0 0 C2.97 0 5.94 0 9 0 C9 0.33 9 0.66 9 1 C6.03 1 3.06 1 0 1 C0 0.67 0 0.34 0 0 Z " fill="#0085FF" transform="translate(369,375)"/>
<path d="M0 0 C2.64 0 5.28 0 8 0 C8 0.33 8 0.66 8 1 C5.36 1 2.72 1 0 1 C0 0.67 0 0.34 0 0 Z " fill="#0085FF" transform="translate(155,437)"/>
<path d="M0 0 C2.64 0 5.28 0 8 0 C8 0.33 8 0.66 8 1 C5.36 1 2.72 1 0 1 C0 0.67 0 0.34 0 0 Z " fill="#0085FF" transform="translate(172,436)"/>
<path d="M0 0 C2.64 0 5.28 0 8 0 C8 0.33 8 0.66 8 1 C5.36 1 2.72 1 0 1 C0 0.67 0 0.34 0 0 Z " fill="#0085FF" transform="translate(340,426)"/>
<path d="M0 0 C2.64 0 5.28 0 8 0 C8 0.33 8 0.66 8 1 C5.36 1 2.72 1 0 1 C0 0.67 0 0.34 0 0 Z " fill="#0085FF" transform="translate(423,421)"/>
<path d="M0 0 C2.64 0 5.28 0 8 0 C8 0.33 8 0.66 8 1 C5.36 1 2.72 1 0 1 C0 0.67 0 0.34 0 0 Z " fill="#0085FF" transform="translate(490,417)"/>
<path d="M0 0 C2.64 0 5.28 0 8 0 C8 0.33 8 0.66 8 1 C5.36 1 2.72 1 0 1 C0 0.67 0 0.34 0 0 Z " fill="#0085FF" transform="translate(524,415)"/>
<path d="M0 0 C2.64 0 5.28 0 8 0 C8 0.33 8 0.66 8 1 C5.36 1 2.72 1 0 1 C0 0.67 0 0.34 0 0 Z " fill="#0085FF" transform="translate(420,378)"/>
<path d="M0 0 C2.64 0 5.28 0 8 0 C8 0.33 8 0.66 8 1 C5.36 1 2.72 1 0 1 C0 0.67 0 0.34 0 0 Z " fill="#0085FF" transform="translate(252,368)"/>
<path d="M0 0 C2.64 0 5.28 0 8 0 C8 0.33 8 0.66 8 1 C5.36 1 2.72 1 0 1 C0 0.67 0 0.34 0 0 Z " fill="#0085FF" transform="translate(168,363)"/>
<path d="M0 0 C2.31 0 4.62 0 7 0 C7 0.33 7 0.66 7 1 C4.69 1 2.38 1 0 1 C0 0.67 0 0.34 0 0 Z " fill="#0085FF" transform="translate(189,435)"/>
<path d="M0 0 C2.31 0 4.62 0 7 0 C7 0.33 7 0.66 7 1 C4.69 1 2.38 1 0 1 C0 0.67 0 0.34 0 0 Z " fill="#0085FF" transform="translate(223,433)"/>
<path d="M0 0 C2.31 0 4.62 0 7 0 C7 0.33 7 0.66 7 1 C4.69 1 2.38 1 0 1 C0 0.67 0 0.34 0 0 Z " fill="#0085FF" transform="translate(323,427)"/>
<path d="M0 0 C2.31 0 4.62 0 7 0 C7 0.33 7 0.66 7 1 C4.69 1 2.38 1 0 1 C0 0.67 0 0.34 0 0 Z " fill="#0085FF" transform="translate(357,425)"/>
<path d="M0 0 C2.31 0 4.62 0 7 0 C7 0.33 7 0.66 7 1 C4.69 1 2.38 1 0 1 C0 0.67 0 0.34 0 0 Z " fill="#0085FF" transform="translate(407,422)"/>
<path d="M0 0 C2.31 0 4.62 0 7 0 C7 0.33 7 0.66 7 1 C4.69 1 2.38 1 0 1 C0 0.67 0 0.34 0 0 Z " fill="#0085FF" transform="translate(474,418)"/>
<path d="M0 0 C2.31 0 4.62 0 7 0 C7 0.33 7 0.66 7 1 C4.69 1 2.38 1 0 1 C0 0.67 0 0.34 0 0 Z " fill="#0085FF" transform="translate(521,384)"/>
<path d="M0 0 C2.31 0 4.62 0 7 0 C7 0.33 7 0.66 7 1 C4.69 1 2.38 1 0 1 C0 0.67 0 0.34 0 0 Z " fill="#0085FF" transform="translate(471,381)"/>
<path d="M0 0 C2.31 0 4.62 0 7 0 C7 0.33 7 0.66 7 1 C4.69 1 2.38 1 0 1 C0 0.67 0 0.34 0 0 Z " fill="#0085FF" transform="translate(353,374)"/>
<path d="M0 0 C2.31 0 4.62 0 7 0 C7 0.33 7 0.66 7 1 C4.69 1 2.38 1 0 1 C0 0.67 0 0.34 0 0 Z " fill="#0085FF" transform="translate(185,364)"/>
<path d="M0 0 C1.98 0 3.96 0 6 0 C6 0.33 6 0.66 6 1 C4.02 1 2.04 1 0 1 C0 0.67 0 0.34 0 0 Z " fill="#0085FF" transform="translate(139,438)"/>
<path d="M0 0 C1.98 0 3.96 0 6 0 C6 0.33 6 0.66 6 1 C4.02 1 2.04 1 0 1 C0 0.67 0 0.34 0 0 Z " fill="#0085FF" transform="translate(273,430)"/>
<path d="M0 0 C1.98 0 3.96 0 6 0 C6 0.33 6 0.66 6 1 C4.02 1 2.04 1 0 1 C0 0.67 0 0.34 0 0 Z " fill="#0085FF" transform="translate(307,428)"/>
<path d="M0 0 C1.98 0 3.96 0 6 0 C6 0.33 6 0.66 6 1 C4.02 1 2.04 1 0 1 C0 0.67 0 0.34 0 0 Z " fill="#0085FF" transform="translate(441,420)"/>
<path d="M0 0 C1.98 0 3.96 0 6 0 C6 0.33 6 0.66 6 1 C4.02 1 2.04 1 0 1 C0 0.67 0 0.34 0 0 Z " fill="#0085FF" transform="translate(115,32)"/>
<path d="M0 0 C1.98 0 3.96 0 6 0 C6 0.33 6 0.66 6 1 C4.02 1 2.04 1 0 1 C0 0.67 0 0.34 0 0 Z " fill="#0085FF" transform="translate(96,32)"/>
<path d="M0 0 C1.65 0 3.3 0 5 0 C5 0.33 5 0.66 5 1 C3.35 1 1.7 1 0 1 C0 0.67 0 0.34 0 0 Z " fill="#0085FF" transform="translate(391,423)"/>
<path d="M0 0 C4 1 4 1 4 1 Z " fill="#0085FF" transform="translate(555,386)"/>
<path d="M0 0 C1 4 1 4 1 4 Z " fill="#0085FF" transform="translate(32,116)"/>
<path d="M0 0 C1 4 1 4 1 4 Z " fill="#0085FF" transform="translate(32,88)"/>
<path d="M0 0 C3 1 3 1 3 1 Z " fill="#0085FF" transform="translate(92,766)"/>
<path d="M0 0 C3 1 3 1 3 1 Z " fill="#0085FF" transform="translate(87,765)"/>
<path d="" fill="#0085FF" transform="translate(0,0)"/>
<path d="" fill="#0085FF" transform="translate(0,0)"/>
<path d="" fill="#0085FF" transform="translate(0,0)"/>
<path d="" fill="#0085FF" transform="translate(0,0)"/>
<path d="" fill="#0085FF" transform="translate(0,0)"/>
<path d="" fill="#0085FF" transform="translate(0,0)"/>
<path d="" fill="#0085FF" transform="translate(0,0)"/>
<path d="M0 0 C3 1 3 1 3 1 Z " fill="#0085FF" transform="translate(110,440)"/>
<path d="M0 0 C3 1 3 1 3 1 Z " fill="#0085FF" transform="translate(219,433)"/>
<path d="M0 0 C3 1 3 1 3 1 Z " fill="#0085FF" transform="translate(387,423)"/>
<path d="" fill="#0085FF" transform="translate(0,0)"/>
<path d="" fill="#0085FF" transform="translate(0,0)"/>
<path d="" fill="#0085FF" transform="translate(0,0)"/>
<path d="" fill="#0085FF" transform="translate(0,0)"/>
<path d="" fill="#0085FF" transform="translate(0,0)"/>
<path d="" fill="#0085FF" transform="translate(0,0)"/>
<path d="" fill="#0085FF" transform="translate(0,0)"/>
<path d="" fill="#0085FF" transform="translate(0,0)"/>
<path d="" fill="#0085FF" transform="translate(0,0)"/>
<path d="M0 0 C3 1 3 1 3 1 Z " fill="#0085FF" transform="translate(124,33)"/>
<path d="M0 0 C3 1 3 1 3 1 Z " fill="#0085FF" transform="translate(90,33)"/>
<path d="M0 0 C2 1 2 1 2 1 Z " fill="#0085FF" transform="translate(131,765)"/>
<path d="M0 0 C2 1 2 1 2 1 Z " fill="#0085FF" transform="translate(134,764)"/>
<path d="M0 0 C2 1 2 1 2 1 Z " fill="#0085FF" transform="translate(84,764)"/>
<path d="M0 0 C2 1 2 1 2 1 Z " fill="#0085FF" transform="translate(80,763)"/>
<path d="M0 0 C2 1 2 1 2 1 Z " fill="#0085FF" transform="translate(77,762)"/>
<path d="M0 0 C2 1 2 1 2 1 Z " fill="#0085FF" transform="translate(72,760)"/>
<path d="" fill="#0085FF" transform="translate(0,0)"/>
<path d="" fill="#0085FF" transform="translate(0,0)"/>
<path d="" fill="#0085FF" transform="translate(0,0)"/>
<path d="" fill="#0085FF" transform="translate(0,0)"/>
<path d="" fill="#0085FF" transform="translate(0,0)"/>
<path d="" fill="#0085FF" transform="translate(0,0)"/>
<path d="" fill="#0085FF" transform="translate(0,0)"/>
<path d="" fill="#0085FF" transform="translate(0,0)"/>
<path d="" fill="#0085FF" transform="translate(0,0)"/>
<path d="" fill="#0085FF" transform="translate(0,0)"/>
<path d="" fill="#0085FF" transform="translate(0,0)"/>
<path d="" fill="#0085FF" transform="translate(0,0)"/>
<path d="" fill="#0085FF" transform="translate(0,0)"/>
<path d="" fill="#0085FF" transform="translate(0,0)"/>
<path d="" fill="#0085FF" transform="translate(0,0)"/>
<path d="" fill="#0085FF" transform="translate(0,0)"/>
<path d="" fill="#0085FF" transform="translate(0,0)"/>
<path d="" fill="#0085FF" transform="translate(0,0)"/>
<path d="" fill="#0085FF" transform="translate(0,0)"/>
<path d="" fill="#0085FF" transform="translate(0,0)"/>
<path d="" fill="#0085FF" transform="translate(0,0)"/>
<path d="" fill="#0085FF" transform="translate(0,0)"/>
<path d="" fill="#0085FF" transform="translate(0,0)"/>
<path d="" fill="#0085FF" transform="translate(0,0)"/>
<path d="" fill="#0085FF" transform="translate(0,0)"/>
<path d="" fill="#0085FF" transform="translate(0,0)"/>
<path d="" fill="#0085FF" transform="translate(0,0)"/>
<path d="" fill="#0085FF" transform="translate(0,0)"/>
<path d="" fill="#0085FF" transform="translate(0,0)"/>
<path d="" fill="#0085FF" transform="translate(0,0)"/>
<path d="" fill="#0085FF" transform="translate(0,0)"/>
<path d="" fill="#0085FF" transform="translate(0,0)"/>
<path d="" fill="#0085FF" transform="translate(0,0)"/>
<path d="M0 0 C2 1 2 1 2 1 Z " fill="#0085FF" transform="translate(518,572)"/>
<path d="" fill="#0085FF" transform="translate(0,0)"/>
<path d="M0 0 C2 1 2 1 2 1 Z " fill="#0085FF" transform="translate(522,570)"/>
<path d="" fill="#0085FF" transform="translate(0,0)"/>
<path d="" fill="#0085FF" transform="translate(0,0)"/>
<path d="" fill="#0085FF" transform="translate(0,0)"/>
<path d="" fill="#0085FF" transform="translate(0,0)"/>
<path d="" fill="#0085FF" transform="translate(0,0)"/>
<path d="" fill="#0085FF" transform="translate(0,0)"/>
<path d="" fill="#0085FF" transform="translate(0,0)"/>
<path d="" fill="#0085FF" transform="translate(0,0)"/>
<path d="" fill="#0085FF" transform="translate(0,0)"/>
<path d="" fill="#0085FF" transform="translate(0,0)"/>
<path d="" fill="#0085FF" transform="translate(0,0)"/>
<path d="" fill="#0085FF" transform="translate(0,0)"/>
<path d="" fill="#0085FF" transform="translate(0,0)"/>
<path d="" fill="#0085FF" transform="translate(0,0)"/>
<path d="" fill="#0085FF" transform="translate(0,0)"/>
<path d="" fill="#0085FF" transform="translate(0,0)"/>
<path d="" fill="#0085FF" transform="translate(0,0)"/>
<path d="" fill="#0085FF" transform="translate(0,0)"/>
<path d="" fill="#0085FF" transform="translate(0,0)"/>
<path d="" fill="#0085FF" transform="translate(0,0)"/>
<path d="" fill="#0085FF" transform="translate(0,0)"/>
<path d="" fill="#0085FF" transform="translate(0,0)"/>
<path d="" fill="#0085FF" transform="translate(0,0)"/>
<path d="" fill="#0085FF" transform="translate(0,0)"/>
<path d="" fill="#0085FF" transform="translate(0,0)"/>
<path d="" fill="#0085FF" transform="translate(0,0)"/>
<path d="" fill="#0085FF" transform="translate(0,0)"/>
<path d="" fill="#0085FF" transform="translate(0,0)"/>
<path d="M0 0 C2 1 2 1 2 1 Z " fill="#0085FF" transform="translate(107,441)"/>
<path d="M0 0 C2 1 2 1 2 1 Z " fill="#0085FF" transform="translate(136,438)"/>
<path d="M0 0 C2 1 2 1 2 1 Z " fill="#0085FF" transform="translate(152,437)"/>
<path d="M0 0 C2 1 2 1 2 1 Z " fill="#0085FF" transform="translate(169,436)"/>
<path d="" fill="#0085FF" transform="translate(0,0)"/>
<path d="M0 0 C2 1 2 1 2 1 Z " fill="#0085FF" transform="translate(270,430)"/>
<path d="M0 0 C2 1 2 1 2 1 Z " fill="#0085FF" transform="translate(304,428)"/>
<path d="" fill="#0085FF" transform="translate(0,0)"/>
<path d="M0 0 C2 1 2 1 2 1 Z " fill="#0085FF" transform="translate(337,426)"/>
<path d="M0 0 C2 1 2 1 2 1 Z " fill="#0085FF" transform="translate(354,425)"/>
<path d="M0 0 C2 1 2 1 2 1 Z " fill="#0085FF" transform="translate(370,424)"/>
<path d="" fill="#0085FF" transform="translate(0,0)"/>
<path d="M0 0 C2 1 2 1 2 1 Z " fill="#0085FF" transform="translate(404,422)"/>
<path d="M0 0 C2 1 2 1 2 1 Z " fill="#0085FF" transform="translate(438,420)"/>
<path d="" fill="#0085FF" transform="translate(0,0)"/>
<path d="M0 0 C2 1 2 1 2 1 Z " fill="#0085FF" transform="translate(454,419)"/>
<path d="M0 0 C2 1 2 1 2 1 Z " fill="#0085FF" transform="translate(471,418)"/>
<path d="M0 0 C2 1 2 1 2 1 Z " fill="#0085FF" transform="translate(558,413)"/>
<path d="M0 0 C2 1 2 1 2 1 Z " fill="#0085FF" transform="translate(555,413)"/>
<path d="" fill="#0085FF" transform="translate(0,0)"/>
<path d="" fill="#0085FF" transform="translate(0,0)"/>
<path d="M0 0 C2 1 2 1 2 1 Z " fill="#0085FF" transform="translate(561,387)"/>
<path d="M0 0 C2 1 2 1 2 1 Z " fill="#0085FF" transform="translate(552,386)"/>
<path d="" fill="#0085FF" transform="translate(0,0)"/>
<path d="M0 0 C2 1 2 1 2 1 Z " fill="#0085FF" transform="translate(501,383)"/>
<path d="M0 0 C2 1 2 1 2 1 Z " fill="#0085FF" transform="translate(468,381)"/>
<path d="M0 0 C2 1 2 1 2 1 Z " fill="#0085FF" transform="translate(417,378)"/>
<path d="M0 0 C2 1 2 1 2 1 Z " fill="#0085FF" transform="translate(384,376)"/>
<path d="M0 0 C2 1 2 1 2 1 Z " fill="#0085FF" transform="translate(333,373)"/>
<path d="M0 0 C2 1 2 1 2 1 Z " fill="#0085FF" transform="translate(300,371)"/>
<path d="M0 0 C2 1 2 1 2 1 Z " fill="#0085FF" transform="translate(249,368)"/>
<path d="M0 0 C2 1 2 1 2 1 Z " fill="#0085FF" transform="translate(216,366)"/>
<path d="M0 0 C2 1 2 1 2 1 Z " fill="#0085FF" transform="translate(132,361)"/>
<path d="" fill="#0085FF" transform="translate(0,0)"/>
<path d="" fill="#0085FF" transform="translate(0,0)"/>
<path d="" fill="#0085FF" transform="translate(0,0)"/>
<path d="" fill="#0085FF" transform="translate(0,0)"/>
<path d="" fill="#0085FF" transform="translate(0,0)"/>
<path d="" fill="#0085FF" transform="translate(0,0)"/>
<path d="" fill="#0085FF" transform="translate(0,0)"/>
<path d="" fill="#0085FF" transform="translate(0,0)"/>
<path d="M0 0 C2 1 2 1 2 1 Z " fill="#0085FF" transform="translate(700,323)"/>
<path d="M0 0 C2 1 2 1 2 1 Z " fill="#0085FF" transform="translate(698,322)"/>
<path d="" fill="#0085FF" transform="translate(0,0)"/>
<path d="M0 0 C2 1 2 1 2 1 Z " fill="#0085FF" transform="translate(696,321)"/>
<path d="" fill="#0085FF" transform="translate(0,0)"/>
<path d="" fill="#0085FF" transform="translate(0,0)"/>
<path d="" fill="#0085FF" transform="translate(0,0)"/>
<path d="" fill="#0085FF" transform="translate(0,0)"/>
<path d="" fill="#0085FF" transform="translate(0,0)"/>
<path d="M0 0 C2 1 2 1 2 1 Z " fill="#0085FF" transform="translate(647,296)"/>
<path d="M0 0 C2 1 2 1 2 1 Z " fill="#0085FF" transform="translate(645,295)"/>
<path d="M0 0 C2 1 2 1 2 1 Z " fill="#0085FF" transform="translate(643,294)"/>
<path d="" fill="#0085FF" transform="translate(0,0)"/>
<path d="" fill="#0085FF" transform="translate(0,0)"/>
<path d="" fill="#0085FF" transform="translate(0,0)"/>
<path d="" fill="#0085FF" transform="translate(0,0)"/>
<path d="" fill="#0085FF" transform="translate(0,0)"/>
<path d="" fill="#0085FF" transform="translate(0,0)"/>
<path d="" fill="#0085FF" transform="translate(0,0)"/>
<path d="" fill="#0085FF" transform="translate(0,0)"/>
<path d="M0 0 C2 1 2 1 2 1 Z " fill="#0085FF" transform="translate(594,269)"/>
<path d="M0 0 C2 1 2 1 2 1 Z " fill="#0085FF" transform="translate(592,268)"/>
<path d="M0 0 C2 1 2 1 2 1 Z " fill="#0085FF" transform="translate(590,267)"/>
<path d="" fill="#0085FF" transform="translate(0,0)"/>
<path d="" fill="#0085FF" transform="translate(0,0)"/>
<path d="" fill="#0085FF" transform="translate(0,0)"/>
<path d="" fill="#0085FF" transform="translate(0,0)"/>
<path d="" fill="#0085FF" transform="translate(0,0)"/>
<path d="" fill="#0085FF" transform="translate(0,0)"/>
<path d="M0 0 C2 1 2 1 2 1 Z " fill="#0085FF" transform="translate(541,242)"/>
<path d="M0 0 C2 1 2 1 2 1 Z " fill="#0085FF" transform="translate(539,241)"/>
<path d="M0 0 C2 1 2 1 2 1 Z " fill="#0085FF" transform="translate(537,240)"/>
<path d="" fill="#0085FF" transform="translate(0,0)"/>
<path d="" fill="#0085FF" transform="translate(0,0)"/>
<path d="" fill="#0085FF" transform="translate(0,0)"/>
<path d="" fill="#0085FF" transform="translate(0,0)"/>
<path d="" fill="#0085FF" transform="translate(0,0)"/>
<path d="" fill="#0085FF" transform="translate(0,0)"/>
<path d="M0 0 C2 1 2 1 2 1 Z " fill="#0085FF" transform="translate(488,215)"/>
<path d="M0 0 C2 1 2 1 2 1 Z " fill="#0085FF" transform="translate(486,214)"/>
<path d="M0 0 C2 1 2 1 2 1 Z " fill="#0085FF" transform="translate(484,213)"/>
<path d="M0 0 C2 1 2 1 2 1 Z " fill="#0085FF" transform="translate(482,212)"/>
<path d="" fill="#0085FF" transform="translate(0,0)"/>
<path d="" fill="#0085FF" transform="translate(0,0)"/>
<path d="" fill="#0085FF" transform="translate(0,0)"/>
<path d="" fill="#0085FF" transform="translate(0,0)"/>
<path d="" fill="#0085FF" transform="translate(0,0)"/>
<path d="" fill="#0085FF" transform="translate(0,0)"/>
<path d="M0 0 C2 1 2 1 2 1 Z " fill="#0085FF" transform="translate(433,187)"/>
<path d="M0 0 C2 1 2 1 2 1 Z " fill="#0085FF" transform="translate(431,186)"/>
<path d="M0 0 C2 1 2 1 2 1 Z " fill="#0085FF" transform="translate(429,185)"/>
<path d="" fill="#0085FF" transform="translate(0,0)"/>
<path d="" fill="#0085FF" transform="translate(0,0)"/>
<path d="" fill="#0085FF" transform="translate(0,0)"/>
<path d="" fill="#0085FF" transform="translate(0,0)"/>
<path d="" fill="#0085FF" transform="translate(0,0)"/>
<path d="" fill="#0085FF" transform="translate(0,0)"/>
<path d="" fill="#0085FF" transform="translate(0,0)"/>
<path d="M0 0 C2 1 2 1 2 1 Z " fill="#0085FF" transform="translate(380,160)"/>
<path d="M0 0 C2 1 2 1 2 1 Z " fill="#0085FF" transform="translate(378,159)"/>
<path d="" fill="#0085FF" transform="translate(0,0)"/>
<path d="" fill="#0085FF" transform="translate(0,0)"/>
<path d="" fill="#0085FF" transform="translate(0,0)"/>
<path d="" fill="#0085FF" transform="translate(0,0)"/>
<path d="" fill="#0085FF" transform="translate(0,0)"/>
<path d="" fill="#0085FF" transform="translate(0,0)"/>
<path d="" fill="#0085FF" transform="translate(0,0)"/>
<path d="" fill="#0085FF" transform="translate(0,0)"/>
<path d="M0 0 C2 1 2 1 2 1 Z " fill="#0085FF" transform="translate(327,133)"/>
<path d="M0 0 C2 1 2 1 2 1 Z " fill="#0085FF" transform="translate(325,132)"/>
<path d="" fill="#0085FF" transform="translate(0,0)"/>
<path d="" fill="#0085FF" transform="translate(0,0)"/>
<path d="M0 0 C2 1 2 1 2 1 Z " fill="#0085FF" transform="translate(272,105)"/>
<path d="M0 0 C2 1 2 1 2 1 Z " fill="#0085FF" transform="translate(270,104)"/>
<path d="" fill="#0085FF" transform="translate(0,0)"/>
<path d="" fill="#0085FF" transform="translate(0,0)"/>
<path d="M0 0 C2 1 2 1 2 1 Z " fill="#0085FF" transform="translate(219,78)"/>
<path d="M0 0 C2 1 2 1 2 1 Z " fill="#0085FF" transform="translate(217,77)"/>
<path d="M0 0 C2 1 2 1 2 1 Z " fill="#0085FF" transform="translate(215,76)"/>
<path d="" fill="#0085FF" transform="translate(0,0)"/>
<path d="" fill="#0085FF" transform="translate(0,0)"/>
<path d="M0 0 C2 1 2 1 2 1 Z " fill="#0085FF" transform="translate(166,51)"/>
<path d="M0 0 C2 1 2 1 2 1 Z " fill="#0085FF" transform="translate(164,50)"/>
<path d="M0 0 C2 1 2 1 2 1 Z " fill="#0085FF" transform="translate(162,49)"/>
<path d="M0 0 C2 1 2 1 2 1 Z " fill="#0085FF" transform="translate(76,37)"/>
<path d="M0 0 C2 1 2 1 2 1 Z " fill="#0085FF" transform="translate(136,36)"/>
<path d="M0 0 C2 1 2 1 2 1 Z " fill="#0085FF" transform="translate(79,36)"/>
<path d="M0 0 C2 1 2 1 2 1 Z " fill="#0085FF" transform="translate(133,35)"/>
<path d="M0 0 C2 1 2 1 2 1 Z " fill="#0085FF" transform="translate(82,35)"/>
<path d="M0 0 C2 1 2 1 2 1 Z " fill="#0085FF" transform="translate(129,34)"/>
<path d="M0 0 C2 1 2 1 2 1 Z " fill="#0085FF" transform="translate(86,34)"/>
<path d="" fill="#0085FF" transform="translate(0,0)"/>
<path d="" fill="#0085FF" transform="translate(0,0)"/>
<path d="" fill="#0085FF" transform="translate(0,0)"/>
<path d="" fill="#0085FF" transform="translate(0,0)"/>
<path d="" fill="#0085FF" transform="translate(0,0)"/>
<path d="" fill="#0085FF" transform="translate(0,0)"/>
<path d="" fill="#0085FF" transform="translate(0,0)"/>
<path d="" fill="#0085FF" transform="translate(0,0)"/>
<path d="" fill="#0085FF" transform="translate(0,0)"/>
<path d="" fill="#0085FF" transform="translate(0,0)"/>
<path d="" fill="#0085FF" transform="translate(0,0)"/>
<path d="" fill="#0085FF" transform="translate(0,0)"/>
<path d="" fill="#0085FF" transform="translate(0,0)"/>
<path d="" fill="#0085FF" transform="translate(0,0)"/>
<path d="" fill="#0085FF" transform="translate(0,0)"/>
<path d="" fill="#0085FF" transform="translate(0,0)"/>
<path d="" fill="#0085FF" transform="translate(0,0)"/>
<path d="" fill="#0085FF" transform="translate(0,0)"/>
<path d="" fill="#0085FF" transform="translate(0,0)"/>
<path d="" fill="#0085FF" transform="translate(0,0)"/>
<path d="" fill="#0085FF" transform="translate(0,0)"/>
<path d="" fill="#0085FF" transform="translate(0,0)"/>
<path d="" fill="#0085FF" transform="translate(0,0)"/>
<path d="" fill="#0085FF" transform="translate(0,0)"/>
<path d="" fill="#0085FF" transform="translate(0,0)"/>
<path d="" fill="#0085FF" transform="translate(0,0)"/>
<path d="" fill="#0085FF" transform="translate(0,0)"/>
<path d="" fill="#0085FF" transform="translate(0,0)"/>
<path d="" fill="#0085FF" transform="translate(0,0)"/>
<path d="" fill="#0085FF" transform="translate(0,0)"/>
<path d="" fill="#0085FF" transform="translate(0,0)"/>
<path d="" fill="#0085FF" transform="translate(0,0)"/>
<path d="" fill="#0085FF" transform="translate(0,0)"/>
<path d="" fill="#0085FF" transform="translate(0,0)"/>
<path d="" fill="#0085FF" transform="translate(0,0)"/>
<path d="" fill="#0085FF" transform="translate(0,0)"/>
<path d="" fill="#0085FF" transform="translate(0,0)"/>
<path d="" fill="#0085FF" transform="translate(0,0)"/>
<path d="" fill="#0085FF" transform="translate(0,0)"/>
<path d="" fill="#0085FF" transform="translate(0,0)"/>
<path d="" fill="#0085FF" transform="translate(0,0)"/>
<path d="" fill="#0085FF" transform="translate(0,0)"/>
<path d="" fill="#0085FF" transform="translate(0,0)"/>
<path d="" fill="#0085FF" transform="translate(0,0)"/>
<path d="" fill="#0085FF" transform="translate(0,0)"/>
<path d="" fill="#0085FF" transform="translate(0,0)"/>
<path d="" fill="#0085FF" transform="translate(0,0)"/>
<path d="" fill="#0085FF" transform="translate(0,0)"/>
<path d="" fill="#0085FF" transform="translate(0,0)"/>
<path d="" fill="#0085FF" transform="translate(0,0)"/>
<path d="" fill="#0085FF" transform="translate(0,0)"/>
<path d="" fill="#0085FF" transform="translate(0,0)"/>
<path d="" fill="#0085FF" transform="translate(0,0)"/>
<path d="" fill="#0085FF" transform="translate(0,0)"/>
<path d="" fill="#0085FF" transform="translate(0,0)"/>
<path d="" fill="#0085FF" transform="translate(0,0)"/>
<path d="" fill="#0085FF" transform="translate(0,0)"/>
<path d="" fill="#0085FF" transform="translate(0,0)"/>
<path d="" fill="#0085FF" transform="translate(0,0)"/>
<path d="" fill="#0085FF" transform="translate(0,0)"/>
<path d="" fill="#0085FF" transform="translate(0,0)"/>
<path d="" fill="#0085FF" transform="translate(0,0)"/>
<path d="" fill="#0085FF" transform="translate(0,0)"/>
<path d="" fill="#0085FF" transform="translate(0,0)"/>
<path d="" fill="#0085FF" transform="translate(0,0)"/>
<path d="" fill="#0085FF" transform="translate(0,0)"/>
<path d="" fill="#0085FF" transform="translate(0,0)"/>
<path d="" fill="#0085FF" transform="translate(0,0)"/>
<path d="" fill="#0085FF" transform="translate(0,0)"/>
<path d="" fill="#0085FF" transform="translate(0,0)"/>
<path d="" fill="#0085FF" transform="translate(0,0)"/>
<path d="" fill="#0085FF" transform="translate(0,0)"/>
<path d="" fill="#0085FF" transform="translate(0,0)"/>
<path d="" fill="#0085FF" transform="translate(0,0)"/>
<path d="" fill="#0085FF" transform="translate(0,0)"/>
<path d="" fill="#0085FF" transform="translate(0,0)"/>
<path d="" fill="#0085FF" transform="translate(0,0)"/>
<path d="" fill="#0085FF" transform="translate(0,0)"/>
<path d="" fill="#0085FF" transform="translate(0,0)"/>
<path d="" fill="#0085FF" transform="translate(0,0)"/>
<path d="" fill="#0085FF" transform="translate(0,0)"/>
<path d="" fill="#0085FF" transform="translate(0,0)"/>
<path d="" fill="#0085FF" transform="translate(0,0)"/>
<path d="" fill="#0085FF" transform="translate(0,0)"/>
<path d="" fill="#0085FF" transform="translate(0,0)"/>
<path d="" fill="#0085FF" transform="translate(0,0)"/>
<path d="" fill="#0085FF" transform="translate(0,0)"/>
<path d="" fill="#0085FF" transform="translate(0,0)"/>
<path d="" fill="#0085FF" transform="translate(0,0)"/>
<path d="" fill="#0085FF" transform="translate(0,0)"/>
<path d="" fill="#0085FF" transform="translate(0,0)"/>
<path d="" fill="#0085FF" transform="translate(0,0)"/>
<path d="" fill="#0085FF" transform="translate(0,0)"/>
<path d="" fill="#0085FF" transform="translate(0,0)"/>
<path d="" fill="#0085FF" transform="translate(0,0)"/>
<path d="" fill="#0085FF" transform="translate(0,0)"/>
<path d="" fill="#0085FF" transform="translate(0,0)"/>
<path d="" fill="#0085FF" transform="translate(0,0)"/>
<path d="" fill="#0085FF" transform="translate(0,0)"/>
<path d="" fill="#0085FF" transform="translate(0,0)"/>
<path d="" fill="#0085FF" transform="translate(0,0)"/>
<path d="" fill="#0085FF" transform="translate(0,0)"/>
<path d="" fill="#0085FF" transform="translate(0,0)"/>
<path d="" fill="#0085FF" transform="translate(0,0)"/>
<path d="" fill="#0085FF" transform="translate(0,0)"/>
<path d="" fill="#0085FF" transform="translate(0,0)"/>
<path d="" fill="#0085FF" transform="translate(0,0)"/>
<path d="" fill="#0085FF" transform="translate(0,0)"/>
<path d="" fill="#0085FF" transform="translate(0,0)"/>
<path d="" fill="#0085FF" transform="translate(0,0)"/>
<path d="" fill="#0085FF" transform="translate(0,0)"/>
<path d="" fill="#0085FF" transform="translate(0,0)"/>
<path d="" fill="#0085FF" transform="translate(0,0)"/>
<path d="" fill="#0085FF" transform="translate(0,0)"/>
<path d="" fill="#0085FF" transform="translate(0,0)"/>
<path d="" fill="#0085FF" transform="translate(0,0)"/>
<path d="" fill="#0085FF" transform="translate(0,0)"/>
<path d="" fill="#0085FF" transform="translate(0,0)"/>
<path d="" fill="#0085FF" transform="translate(0,0)"/>
<path d="" fill="#0085FF" transform="translate(0,0)"/>
<path d="" fill="#0085FF" transform="translate(0,0)"/>
<path d="" fill="#0085FF" transform="translate(0,0)"/>
<path d="" fill="#0085FF" transform="translate(0,0)"/>
<path d="" fill="#0085FF" transform="translate(0,0)"/>
<path d="" fill="#0085FF" transform="translate(0,0)"/>
<path d="" fill="#0085FF" transform="translate(0,0)"/>
<path d="" fill="#0085FF" transform="translate(0,0)"/>
<path d="" fill="#0085FF" transform="translate(0,0)"/>
<path d="" fill="#0085FF" transform="translate(0,0)"/>
<path d="" fill="#0085FF" transform="translate(0,0)"/>
<path d="" fill="#0085FF" transform="translate(0,0)"/>
<path d="" fill="#0085FF" transform="translate(0,0)"/>
<path d="" fill="#0085FF" transform="translate(0,0)"/>
<path d="" fill="#0085FF" transform="translate(0,0)"/>
<path d="" fill="#0085FF" transform="translate(0,0)"/>
<path d="" fill="#0085FF" transform="translate(0,0)"/>
<path d="" fill="#0085FF" transform="translate(0,0)"/>
<path d="" fill="#0085FF" transform="translate(0,0)"/>
<path d="" fill="#0085FF" transform="translate(0,0)"/>
<path d="" fill="#0085FF" transform="translate(0,0)"/>
<path d="" fill="#0085FF" transform="translate(0,0)"/>
<path d="" fill="#0085FF" transform="translate(0,0)"/>
<path d="" fill="#0085FF" transform="translate(0,0)"/>
<path d="" fill="#0085FF" transform="translate(0,0)"/>
<path d="" fill="#0085FF" transform="translate(0,0)"/>
<path d="" fill="#0085FF" transform="translate(0,0)"/>
<path d="" fill="#0085FF" transform="translate(0,0)"/>
<path d="" fill="#0085FF" transform="translate(0,0)"/>
<path d="" fill="#0085FF" transform="translate(0,0)"/>
<path d="" fill="#0085FF" transform="translate(0,0)"/>
<path d="" fill="#0085FF" transform="translate(0,0)"/>
<path d="" fill="#0085FF" transform="translate(0,0)"/>
<path d="" fill="#0085FF" transform="translate(0,0)"/>
<path d="" fill="#0085FF" transform="translate(0,0)"/>
<path d="" fill="#0085FF" transform="translate(0,0)"/>
<path d="" fill="#0085FF" transform="translate(0,0)"/>
<path d="" fill="#0085FF" transform="translate(0,0)"/>
<path d="" fill="#0085FF" transform="translate(0,0)"/>
<path d="" fill="#0085FF" transform="translate(0,0)"/>
<path d="" fill="#0085FF" transform="translate(0,0)"/>
<path d="" fill="#0085FF" transform="translate(0,0)"/>
<path d="" fill="#0085FF" transform="translate(0,0)"/>
<path d="" fill="#0085FF" transform="translate(0,0)"/>
<path d="" fill="#0085FF" transform="translate(0,0)"/>
<path d="" fill="#0085FF" transform="translate(0,0)"/>
<path d="" fill="#0085FF" transform="translate(0,0)"/>
<path d="" fill="#0085FF" transform="translate(0,0)"/>
<path d="" fill="#0085FF" transform="translate(0,0)"/>
<path d="" fill="#0085FF" transform="translate(0,0)"/>
<path d="" fill="#0085FF" transform="translate(0,0)"/>
<path d="" fill="#0085FF" transform="translate(0,0)"/>
<path d="" fill="#0085FF" transform="translate(0,0)"/>
<path d="" fill="#0085FF" transform="translate(0,0)"/>
<path d="" fill="#0085FF" transform="translate(0,0)"/>
<path d="" fill="#0085FF" transform="translate(0,0)"/>
<path d="" fill="#0085FF" transform="translate(0,0)"/>
<path d="" fill="#0085FF" transform="translate(0,0)"/>
<path d="" fill="#0085FF" transform="translate(0,0)"/>
<path d="" fill="#0085FF" transform="translate(0,0)"/>
<path d="" fill="#0085FF" transform="translate(0,0)"/>
<path d="" fill="#0085FF" transform="translate(0,0)"/>
<path d="" fill="#0085FF" transform="translate(0,0)"/>
<path d="" fill="#0085FF" transform="translate(0,0)"/>
<path d="" fill="#0085FF" transform="translate(0,0)"/>
<path d="" fill="#0085FF" transform="translate(0,0)"/>
<path d="" fill="#0085FF" transform="translate(0,0)"/>
<path d="" fill="#0085FF" transform="translate(0,0)"/>
<path d="" fill="#0085FF" transform="translate(0,0)"/>
<path d="" fill="#0085FF" transform="translate(0,0)"/>
<path d="" fill="#0085FF" transform="translate(0,0)"/>
<path d="" fill="#0085FF" transform="translate(0,0)"/>
<path d="" fill="#0085FF" transform="translate(0,0)"/>
<path d="" fill="#0085FF" transform="translate(0,0)"/>
<path d="" fill="#0085FF" transform="translate(0,0)"/>
<path d="" fill="#0085FF" transform="translate(0,0)"/>
<path d="" fill="#0085FF" transform="translate(0,0)"/>
<path d="" fill="#0085FF" transform="translate(0,0)"/>
<path d="" fill="#0085FF" transform="translate(0,0)"/>
<path d="" fill="#0085FF" transform="translate(0,0)"/>
<path d="" fill="#0085FF" transform="translate(0,0)"/>
<path d="" fill="#0085FF" transform="translate(0,0)"/>
<path d="" fill="#0085FF" transform="translate(0,0)"/>
<path d="" fill="#0085FF" transform="translate(0,0)"/>
<path d="" fill="#0085FF" transform="translate(0,0)"/>
<path d="" fill="#0085FF" transform="translate(0,0)"/>
<path d="" fill="#0085FF" transform="translate(0,0)"/>
<path d="" fill="#0085FF" transform="translate(0,0)"/>
<path d="" fill="#0085FF" transform="translate(0,0)"/>
<path d="" fill="#0085FF" transform="translate(0,0)"/>
<path d="" fill="#0085FF" transform="translate(0,0)"/>
<path d="" fill="#0085FF" transform="translate(0,0)"/>
<path d="" fill="#0085FF" transform="translate(0,0)"/>
<path d="" fill="#0085FF" transform="translate(0,0)"/>
<path d="" fill="#0085FF" transform="translate(0,0)"/>
<path d="" fill="#0085FF" transform="translate(0,0)"/>
<path d="" fill="#0085FF" transform="translate(0,0)"/>
<path d="" fill="#0085FF" transform="translate(0,0)"/>
<path d="" fill="#0085FF" transform="translate(0,0)"/>
<path d="" fill="#0085FF" transform="translate(0,0)"/>
<path d="" fill="#0085FF" transform="translate(0,0)"/>
<path d="" fill="#0085FF" transform="translate(0,0)"/>
<path d="" fill="#0085FF" transform="translate(0,0)"/>
<path d="" fill="#0085FF" transform="translate(0,0)"/>
<path d="" fill="#0085FF" transform="translate(0,0)"/>
<path d="" fill="#0085FF" transform="translate(0,0)"/>
<path d="" fill="#0085FF" transform="translate(0,0)"/>
<path d="" fill="#0085FF" transform="translate(0,0)"/>
<path d="" fill="#0085FF" transform="translate(0,0)"/>
<path d="" fill="#0085FF" transform="translate(0,0)"/>
<path d="" fill="#0085FF" transform="translate(0,0)"/>
<path d="" fill="#0085FF" transform="translate(0,0)"/>
<path d="" fill="#0085FF" transform="translate(0,0)"/>
<path d="" fill="#0085FF" transform="translate(0,0)"/>
<path d="" fill="#0085FF" transform="translate(0,0)"/>
<path d="" fill="#0085FF" transform="translate(0,0)"/>
<path d="" fill="#0085FF" transform="translate(0,0)"/>
<path d="" fill="#0085FF" transform="translate(0,0)"/>
<path d="" fill="#0085FF" transform="translate(0,0)"/>
<path d="" fill="#0085FF" transform="translate(0,0)"/>
<path d="" fill="#0085FF" transform="translate(0,0)"/>
<path d="" fill="#0085FF" transform="translate(0,0)"/>
<path d="" fill="#0085FF" transform="translate(0,0)"/>
<path d="" fill="#0085FF" transform="translate(0,0)"/>
<path d="" fill="#0085FF" transform="translate(0,0)"/>
<path d="" fill="#0085FF" transform="translate(0,0)"/>
<path d="" fill="#0085FF" transform="translate(0,0)"/>
<path d="" fill="#0085FF" transform="translate(0,0)"/>
<path d="" fill="#0085FF" transform="translate(0,0)"/>
<path d="" fill="#0085FF" transform="translate(0,0)"/>
<path d="" fill="#0085FF" transform="translate(0,0)"/>
<path d="" fill="#0085FF" transform="translate(0,0)"/>
<path d="" fill="#0085FF" transform="translate(0,0)"/>
<path d="" fill="#0085FF" transform="translate(0,0)"/>
<path d="" fill="#0085FF" transform="translate(0,0)"/>
<path d="" fill="#0085FF" transform="translate(0,0)"/>
<path d="" fill="#0085FF" transform="translate(0,0)"/>
<path d="" fill="#0085FF" transform="translate(0,0)"/>
<path d="" fill="#0085FF" transform="translate(0,0)"/>
<path d="" fill="#0085FF" transform="translate(0,0)"/>
<path d="" fill="#0085FF" transform="translate(0,0)"/>
<path d="" fill="#0085FF" transform="translate(0,0)"/>
<path d="" fill="#0085FF" transform="translate(0,0)"/>
<path d="" fill="#0085FF" transform="translate(0,0)"/>
<path d="" fill="#0085FF" transform="translate(0,0)"/>
<path d="" fill="#0085FF" transform="translate(0,0)"/>
<path d="" fill="#0085FF" transform="translate(0,0)"/>
<path d="" fill="#0085FF" transform="translate(0,0)"/>
<path d="" fill="#0085FF" transform="translate(0,0)"/>
<path d="" fill="#0085FF" transform="translate(0,0)"/>
<path d="" fill="#0085FF" transform="translate(0,0)"/>
<path d="" fill="#0085FF" transform="translate(0,0)"/>
<path d="" fill="#0085FF" transform="translate(0,0)"/>
<path d="" fill="#0085FF" transform="translate(0,0)"/>
<path d="" fill="#0085FF" transform="translate(0,0)"/>
<path d="" fill="#0085FF" transform="translate(0,0)"/>
<path d="" fill="#0085FF" transform="translate(0,0)"/>
<path d="" fill="#0085FF" transform="translate(0,0)"/>
<path d="" fill="#0085FF" transform="translate(0,0)"/>
<path d="" fill="#0085FF" transform="translate(0,0)"/>
<path d="" fill="#0085FF" transform="translate(0,0)"/>
<path d="" fill="#0085FF" transform="translate(0,0)"/>
<path d="" fill="#0085FF" transform="translate(0,0)"/>
<path d="" fill="#0085FF" transform="translate(0,0)"/>
<path d="" fill="#0085FF" transform="translate(0,0)"/>
<path d="" fill="#0085FF" transform="translate(0,0)"/>
<path d="" fill="#0085FF" transform="translate(0,0)"/>
<path d="" fill="#0085FF" transform="translate(0,0)"/>
<path d="" fill="#0085FF" transform="translate(0,0)"/>
<path d="" fill="#0085FF" transform="translate(0,0)"/>
<path d="" fill="#0085FF" transform="translate(0,0)"/>
<path d="" fill="#0085FF" transform="translate(0,0)"/>
<path d="" fill="#0085FF" transform="translate(0,0)"/>
<path d="" fill="#0085FF" transform="translate(0,0)"/>
<path d="" fill="#0085FF" transform="translate(0,0)"/>
<path d="" fill="#0085FF" transform="translate(0,0)"/>
<path d="" fill="#0085FF" transform="translate(0,0)"/>
<path d="" fill="#0085FF" transform="translate(0,0)"/>
<path d="" fill="#0085FF" transform="translate(0,0)"/>
<path d="" fill="#0085FF" transform="translate(0,0)"/>
<path d="" fill="#0085FF" transform="translate(0,0)"/>
<path d="" fill="#0085FF" transform="translate(0,0)"/>
<path d="" fill="#0085FF" transform="translate(0,0)"/>
<path d="" fill="#0085FF" transform="translate(0,0)"/>
<path d="" fill="#0085FF" transform="translate(0,0)"/>
<path d="" fill="#0085FF" transform="translate(0,0)"/>
<path d="" fill="#0085FF" transform="translate(0,0)"/>
<path d="" fill="#0085FF" transform="translate(0,0)"/>
<path d="" fill="#0085FF" transform="translate(0,0)"/>
<path d="" fill="#0085FF" transform="translate(0,0)"/>
<path d="" fill="#0085FF" transform="translate(0,0)"/>
<path d="" fill="#0085FF" transform="translate(0,0)"/>
<path d="" fill="#0085FF" transform="translate(0,0)"/>
<path d="" fill="#0085FF" transform="translate(0,0)"/>
<path d="" fill="#0085FF" transform="translate(0,0)"/>
<path d="" fill="#0085FF" transform="translate(0,0)"/>
<path d="" fill="#0085FF" transform="translate(0,0)"/>
<path d="" fill="#0085FF" transform="translate(0,0)"/>
<path d="" fill="#0085FF" transform="translate(0,0)"/>
<path d="" fill="#0085FF" transform="translate(0,0)"/>
<path d="" fill="#0085FF" transform="translate(0,0)"/>
<path d="" fill="#0085FF" transform="translate(0,0)"/>
<path d="" fill="#0085FF" transform="translate(0,0)"/>
<path d="" fill="#0085FF" transform="translate(0,0)"/>
<path d="" fill="#0085FF" transform="translate(0,0)"/>
<path d="" fill="#0085FF" transform="translate(0,0)"/>
<path d="" fill="#0085FF" transform="translate(0,0)"/>
<path d="" fill="#0085FF" transform="translate(0,0)"/>
<path d="" fill="#0085FF" transform="translate(0,0)"/>
<path d="" fill="#0085FF" transform="translate(0,0)"/>
<path d="" fill="#0085FF" transform="translate(0,0)"/>
<path d="" fill="#0085FF" transform="translate(0,0)"/>
<path d="" fill="#0085FF" transform="translate(0,0)"/>
<path d="" fill="#0085FF" transform="translate(0,0)"/>
<path d="" fill="#0085FF" transform="translate(0,0)"/>
<path d="" fill="#0085FF" transform="translate(0,0)"/>
<path d="" fill="#0085FF" transform="translate(0,0)"/>
<path d="" fill="#0085FF" transform="translate(0,0)"/>
<path d="" fill="#0085FF" transform="translate(0,0)"/>
<path d="" fill="#0085FF" transform="translate(0,0)"/>
<path d="" fill="#0085FF" transform="translate(0,0)"/>
<path d="" fill="#0085FF" transform="translate(0,0)"/>
<path d="" fill="#0085FF" transform="translate(0,0)"/>
<path d="" fill="#0085FF" transform="translate(0,0)"/>
<path d="" fill="#0085FF" transform="translate(0,0)"/>
<path d="" fill="#0085FF" transform="translate(0,0)"/>
<path d="" fill="#0085FF" transform="translate(0,0)"/>
<path d="" fill="#0085FF" transform="translate(0,0)"/>
<path d="" fill="#0085FF" transform="translate(0,0)"/>
<path d="" fill="#0085FF" transform="translate(0,0)"/>
<path d="" fill="#0085FF" transform="translate(0,0)"/>
<path d="" fill="#0085FF" transform="translate(0,0)"/>
<path d="" fill="#0085FF" transform="translate(0,0)"/>
<path d="" fill="#0085FF" transform="translate(0,0)"/>
<path d="" fill="#0085FF" transform="translate(0,0)"/>
<path d="" fill="#0085FF" transform="translate(0,0)"/>
<path d="" fill="#0085FF" transform="translate(0,0)"/>
<path d="" fill="#0085FF" transform="translate(0,0)"/>
<path d="" fill="#0085FF" transform="translate(0,0)"/>
<path d="" fill="#0085FF" transform="translate(0,0)"/>
<path d="" fill="#0085FF" transform="translate(0,0)"/>
<path d="" fill="#0085FF" transform="translate(0,0)"/>
<path d="" fill="#0085FF" transform="translate(0,0)"/>
<path d="" fill="#0085FF" transform="translate(0,0)"/>
<path d="" fill="#0085FF" transform="translate(0,0)"/>
<path d="" fill="#0085FF" transform="translate(0,0)"/>
<path d="" fill="#0085FF" transform="translate(0,0)"/>
<path d="" fill="#0085FF" transform="translate(0,0)"/>
<path d="" fill="#0085FF" transform="translate(0,0)"/>
<path d="" fill="#0085FF" transform="translate(0,0)"/>
<path d="" fill="#0085FF" transform="translate(0,0)"/>
<path d="" fill="#0085FF" transform="translate(0,0)"/>
<path d="" fill="#0085FF" transform="translate(0,0)"/>
<path d="" fill="#0085FF" transform="translate(0,0)"/>
<path d="" fill="#0085FF" transform="translate(0,0)"/>
<path d="" fill="#0085FF" transform="translate(0,0)"/>
<path d="" fill="#0085FF" transform="translate(0,0)"/>
<path d="" fill="#0085FF" transform="translate(0,0)"/>
<path d="" fill="#0085FF" transform="translate(0,0)"/>
<path d="" fill="#0085FF" transform="translate(0,0)"/>
<path d="" fill="#0085FF" transform="translate(0,0)"/>
<path d="" fill="#0085FF" transform="translate(0,0)"/>
<path d="" fill="#0085FF" transform="translate(0,0)"/>
<path d="" fill="#0085FF" transform="translate(0,0)"/>
<path d="" fill="#0085FF" transform="translate(0,0)"/>
<path d="" fill="#0085FF" transform="translate(0,0)"/>
<path d="" fill="#0085FF" transform="translate(0,0)"/>
<path d="" fill="#0085FF" transform="translate(0,0)"/>
<path d="" fill="#0085FF" transform="translate(0,0)"/>
<path d="" fill="#0085FF" transform="translate(0,0)"/>
<path d="" fill="#0085FF" transform="translate(0,0)"/>
<path d="" fill="#0085FF" transform="translate(0,0)"/>
<path d="" fill="#0085FF" transform="translate(0,0)"/>
<path d="" fill="#0085FF" transform="translate(0,0)"/>
<path d="" fill="#0085FF" transform="translate(0,0)"/>
<path d="" fill="#0085FF" transform="translate(0,0)"/>
<path d="" fill="#0085FF" transform="translate(0,0)"/>
<path d="" fill="#0085FF" transform="translate(0,0)"/>
<path d="" fill="#0085FF" transform="translate(0,0)"/>
<path d="" fill="#0085FF" transform="translate(0,0)"/>
<path d="" fill="#0085FF" transform="translate(0,0)"/>
<path d="" fill="#0085FF" transform="translate(0,0)"/>
<path d="" fill="#0085FF" transform="translate(0,0)"/>
<path d="" fill="#0085FF" transform="translate(0,0)"/>
<path d="" fill="#0085FF" transform="translate(0,0)"/>
<path d="" fill="#0085FF" transform="translate(0,0)"/>
<path d="" fill="#0085FF" transform="translate(0,0)"/>
<path d="" fill="#0085FF" transform="translate(0,0)"/>
<path d="" fill="#0085FF" transform="translate(0,0)"/>
<path d="" fill="#0085FF" transform="translate(0,0)"/>
<path d="" fill="#0085FF" transform="translate(0,0)"/>
<path d="" fill="#0085FF" transform="translate(0,0)"/>
<path d="" fill="#0085FF" transform="translate(0,0)"/>
<path d="" fill="#0085FF" transform="translate(0,0)"/>
<path d="" fill="#0085FF" transform="translate(0,0)"/>
<path d="" fill="#0085FF" transform="translate(0,0)"/>
<path d="" fill="#0085FF" transform="translate(0,0)"/>
<path d="" fill="#0085FF" transform="translate(0,0)"/>
<path d="" fill="#0085FF" transform="translate(0,0)"/>
<path d="" fill="#0085FF" transform="translate(0,0)"/>
<path d="" fill="#0085FF" transform="translate(0,0)"/>
<path d="" fill="#0085FF" transform="translate(0,0)"/>
<path d="" fill="#0085FF" transform="translate(0,0)"/>
<path d="" fill="#0085FF" transform="translate(0,0)"/>
<path d="" fill="#0085FF" transform="translate(0,0)"/>
<path d="" fill="#0085FF" transform="translate(0,0)"/>
<path d="" fill="#0085FF" transform="translate(0,0)"/>
<path d="" fill="#0085FF" transform="translate(0,0)"/>
<path d="" fill="#0085FF" transform="translate(0,0)"/>
<path d="" fill="#0085FF" transform="translate(0,0)"/>
<path d="" fill="#0085FF" transform="translate(0,0)"/>
<path d="" fill="#0085FF" transform="translate(0,0)"/>
<path d="" fill="#0085FF" transform="translate(0,0)"/>
<path d="" fill="#0085FF" transform="translate(0,0)"/>
<path d="" fill="#0085FF" transform="translate(0,0)"/>
<path d="" fill="#0085FF" transform="translate(0,0)"/>
<path d="" fill="#0085FF" transform="translate(0,0)"/>
<path d="" fill="#0085FF" transform="translate(0,0)"/>
<path d="" fill="#0085FF" transform="translate(0,0)"/>
<path d="" fill="#0085FF" transform="translate(0,0)"/>
<path d="" fill="#0085FF" transform="translate(0,0)"/>
<path d="" fill="#0085FF" transform="translate(0,0)"/>
<path d="" fill="#0085FF" transform="translate(0,0)"/>
<path d="" fill="#0085FF" transform="translate(0,0)"/>
<path d="" fill="#0085FF" transform="translate(0,0)"/>
<path d="" fill="#0085FF" transform="translate(0,0)"/>
<path d="" fill="#0085FF" transform="translate(0,0)"/>
<path d="" fill="#0085FF" transform="translate(0,0)"/>
<path d="" fill="#0085FF" transform="translate(0,0)"/>
<path d="" fill="#0085FF" transform="translate(0,0)"/>
<path d="" fill="#0085FF" transform="translate(0,0)"/>
<path d="" fill="#0085FF" transform="translate(0,0)"/>
<path d="" fill="#0085FF" transform="translate(0,0)"/>
<path d="" fill="#0085FF" transform="translate(0,0)"/>
<path d="" fill="#0085FF" transform="translate(0,0)"/>
<path d="" fill="#0085FF" transform="translate(0,0)"/>
<path d="" fill="#0085FF" transform="translate(0,0)"/>
<path d="" fill="#0085FF" transform="translate(0,0)"/>
<path d="" fill="#0085FF" transform="translate(0,0)"/>
<path d="" fill="#0085FF" transform="translate(0,0)"/>
<path d="" fill="#0085FF" transform="translate(0,0)"/>
<path d="" fill="#0085FF" transform="translate(0,0)"/>
<path d="" fill="#0085FF" transform="translate(0,0)"/>
<path d="" fill="#0085FF" transform="translate(0,0)"/>
<path d="" fill="#0085FF" transform="translate(0,0)"/>
<path d="" fill="#0085FF" transform="translate(0,0)"/>
<path d="" fill="#0085FF" transform="translate(0,0)"/>
<path d="" fill="#0085FF" transform="translate(0,0)"/>
<path d="" fill="#0085FF" transform="translate(0,0)"/>
<path d="" fill="#0085FF" transform="translate(0,0)"/>
<path d="" fill="#0085FF" transform="translate(0,0)"/>
<path d="" fill="#0085FF" transform="translate(0,0)"/>
<path d="" fill="#0085FF" transform="translate(0,0)"/>
<path d="" fill="#0085FF" transform="translate(0,0)"/>
<path d="" fill="#0085FF" transform="translate(0,0)"/>
<path d="" fill="#0085FF" transform="translate(0,0)"/>
<path d="" fill="#0085FF" transform="translate(0,0)"/>
<path d="" fill="#0085FF" transform="translate(0,0)"/>
<path d="" fill="#0085FF" transform="translate(0,0)"/>
<path d="" fill="#0085FF" transform="translate(0,0)"/>
<path d="" fill="#0085FF" transform="translate(0,0)"/>
<path d="" fill="#0085FF" transform="translate(0,0)"/>
<path d="" fill="#0085FF" transform="translate(0,0)"/>
<path d="" fill="#0085FF" transform="translate(0,0)"/>
<path d="" fill="#0085FF" transform="translate(0,0)"/>
<path d="" fill="#0085FF" transform="translate(0,0)"/>
<path d="" fill="#0085FF" transform="translate(0,0)"/>
<path d="" fill="#0085FF" transform="translate(0,0)"/>
<path d="" fill="#0085FF" transform="translate(0,0)"/>
<path d="" fill="#0085FF" transform="translate(0,0)"/>
<path d="" fill="#0085FF" transform="translate(0,0)"/>
<path d="" fill="#0085FF" transform="translate(0,0)"/>
<path d="" fill="#0085FF" transform="translate(0,0)"/>
<path d="" fill="#0085FF" transform="translate(0,0)"/>
<path d="" fill="#0085FF" transform="translate(0,0)"/>
<path d="" fill="#0085FF" transform="translate(0,0)"/>
<path d="" fill="#0085FF" transform="translate(0,0)"/>
<path d="" fill="#0085FF" transform="translate(0,0)"/>
<path d="" fill="#0085FF" transform="translate(0,0)"/>
<path d="" fill="#0085FF" transform="translate(0,0)"/>
<path d="" fill="#0085FF" transform="translate(0,0)"/>
<path d="" fill="#0085FF" transform="translate(0,0)"/>
<path d="" fill="#0085FF" transform="translate(0,0)"/>
<path d="" fill="#0085FF" transform="translate(0,0)"/>
<path d="" fill="#0085FF" transform="translate(0,0)"/>
<path d="" fill="#0085FF" transform="translate(0,0)"/>
<path d="" fill="#0085FF" transform="translate(0,0)"/>
<path d="" fill="#0085FF" transform="translate(0,0)"/>
<path d="" fill="#0085FF" transform="translate(0,0)"/>
<path d="" fill="#0085FF" transform="translate(0,0)"/>
<path d="" fill="#0085FF" transform="translate(0,0)"/>
<path d="" fill="#0085FF" transform="translate(0,0)"/>
<path d="" fill="#0085FF" transform="translate(0,0)"/>
<path d="" fill="#0085FF" transform="translate(0,0)"/>
<path d="" fill="#0085FF" transform="translate(0,0)"/>
<path d="" fill="#0085FF" transform="translate(0,0)"/>
<path d="" fill="#0085FF" transform="translate(0,0)"/>
<path d="" fill="#0085FF" transform="translate(0,0)"/>
<path d="" fill="#0085FF" transform="translate(0,0)"/>
<path d="" fill="#0085FF" transform="translate(0,0)"/>
<path d="" fill="#0085FF" transform="translate(0,0)"/>
<path d="" fill="#0085FF" transform="translate(0,0)"/>
<path d="" fill="#0085FF" transform="translate(0,0)"/>
<path d="" fill="#0085FF" transform="translate(0,0)"/>
<path d="" fill="#0085FF" transform="translate(0,0)"/>
<path d="" fill="#0085FF" transform="translate(0,0)"/>
<path d="" fill="#0085FF" transform="translate(0,0)"/>
<path d="" fill="#0085FF" transform="translate(0,0)"/>
<path d="" fill="#0085FF" transform="translate(0,0)"/>
<path d="" fill="#0085FF" transform="translate(0,0)"/>
<path d="" fill="#0085FF" transform="translate(0,0)"/>
<path d="" fill="#0085FF" transform="translate(0,0)"/>
<path d="" fill="#0085FF" transform="translate(0,0)"/>
<path d="" fill="#0085FF" transform="translate(0,0)"/>
<path d="" fill="#0085FF" transform="translate(0,0)"/>
<path d="" fill="#0085FF" transform="translate(0,0)"/>
<path d="" fill="#0085FF" transform="translate(0,0)"/>
<path d="" fill="#0085FF" transform="translate(0,0)"/>
<path d="" fill="#0085FF" transform="translate(0,0)"/>
<path d="" fill="#0085FF" transform="translate(0,0)"/>
<path d="" fill="#0085FF" transform="translate(0,0)"/>
<path d="" fill="#0085FF" transform="translate(0,0)"/>
<path d="" fill="#0085FF" transform="translate(0,0)"/>
<path d="" fill="#0085FF" transform="translate(0,0)"/>
<path d="" fill="#0085FF" transform="translate(0,0)"/>
<path d="" fill="#0085FF" transform="translate(0,0)"/>
<path d="" fill="#0085FF" transform="translate(0,0)"/>
<path d="" fill="#0085FF" transform="translate(0,0)"/>
<path d="" fill="#0085FF" transform="translate(0,0)"/>
<path d="" fill="#0085FF" transform="translate(0,0)"/>
<path d="" fill="#0085FF" transform="translate(0,0)"/>
<path d="" fill="#0085FF" transform="translate(0,0)"/>
<path d="" fill="#0085FF" transform="translate(0,0)"/>
<path d="" fill="#0085FF" transform="translate(0,0)"/>
<path d="" fill="#0085FF" transform="translate(0,0)"/>
<path d="" fill="#0085FF" transform="translate(0,0)"/>
<path d="" fill="#0085FF" transform="translate(0,0)"/>
<path d="" fill="#0085FF" transform="translate(0,0)"/>
<path d="" fill="#0085FF" transform="translate(0,0)"/>
<path d="" fill="#0085FF" transform="translate(0,0)"/>
<path d="" fill="#0085FF" transform="translate(0,0)"/>
<path d="" fill="#0085FF" transform="translate(0,0)"/>
<path d="" fill="#0085FF" transform="translate(0,0)"/>
<path d="" fill="#0085FF" transform="translate(0,0)"/>
<path d="" fill="#0085FF" transform="translate(0,0)"/>
<path d="" fill="#0085FF" transform="translate(0,0)"/>
<path d="" fill="#0085FF" transform="translate(0,0)"/>
<path d="" fill="#0085FF" transform="translate(0,0)"/>
<path d="" fill="#0085FF" transform="translate(0,0)"/>
<path d="" fill="#0085FF" transform="translate(0,0)"/>
<path d="" fill="#0085FF" transform="translate(0,0)"/>
<path d="" fill="#0085FF" transform="translate(0,0)"/>
<path d="" fill="#0085FF" transform="translate(0,0)"/>
<path d="" fill="#0085FF" transform="translate(0,0)"/>
<path d="" fill="#0085FF" transform="translate(0,0)"/>
<path d="" fill="#0085FF" transform="translate(0,0)"/>
<path d="" fill="#0085FF" transform="translate(0,0)"/>
<path d="" fill="#0085FF" transform="translate(0,0)"/>
<path d="" fill="#0085FF" transform="translate(0,0)"/>
<path d="" fill="#0085FF" transform="translate(0,0)"/>
<path d="" fill="#0085FF" transform="translate(0,0)"/>
<path d="" fill="#0085FF" transform="translate(0,0)"/>
<path d="" fill="#0085FF" transform="translate(0,0)"/>
<path d="" fill="#0085FF" transform="translate(0,0)"/>
<path d="" fill="#0085FF" transform="translate(0,0)"/>
<path d="" fill="#0085FF" transform="translate(0,0)"/>
<path d="" fill="#0085FF" transform="translate(0,0)"/>
<path d="" fill="#0085FF" transform="translate(0,0)"/>
<path d="" fill="#0085FF" transform="translate(0,0)"/>
<path d="" fill="#0085FF" transform="translate(0,0)"/>
<path d="" fill="#0085FF" transform="translate(0,0)"/>
<path d="" fill="#0085FF" transform="translate(0,0)"/>
<path d="" fill="#0085FF" transform="translate(0,0)"/>
<path d="" fill="#0085FF" transform="translate(0,0)"/>
<path d="" fill="#0085FF" transform="translate(0,0)"/>
<path d="" fill="#0085FF" transform="translate(0,0)"/>
<path d="" fill="#0085FF" transform="translate(0,0)"/>
<path d="" fill="#0085FF" transform="translate(0,0)"/>
<path d="" fill="#0085FF" transform="translate(0,0)"/>
<path d="" fill="#0085FF" transform="translate(0,0)"/>
<path d="" fill="#0085FF" transform="translate(0,0)"/>
<path d="" fill="#0085FF" transform="translate(0,0)"/>
<path d="" fill="#0085FF" transform="translate(0,0)"/>
<path d="" fill="#0085FF" transform="translate(0,0)"/>
<path d="" fill="#0085FF" transform="translate(0,0)"/>
<path d="" fill="#0085FF" transform="translate(0,0)"/>
<path d="" fill="#0085FF" transform="translate(0,0)"/>
<path d="" fill="#0085FF" transform="translate(0,0)"/>
<path d="" fill="#0085FF" transform="translate(0,0)"/>
<path d="" fill="#0085FF" transform="translate(0,0)"/>
<path d="" fill="#0085FF" transform="translate(0,0)"/>
<path d="" fill="#0085FF" transform="translate(0,0)"/>
<path d="" fill="#0085FF" transform="translate(0,0)"/>
<path d="" fill="#0085FF" transform="translate(0,0)"/>
<path d="" fill="#0085FF" transform="translate(0,0)"/>
<path d="" fill="#0085FF" transform="translate(0,0)"/>
<path d="" fill="#0085FF" transform="translate(0,0)"/>
<path d="" fill="#0085FF" transform="translate(0,0)"/>
<path d="" fill="#0085FF" transform="translate(0,0)"/>
<path d="" fill="#0085FF" transform="translate(0,0)"/>
<path d="" fill="#0085FF" transform="translate(0,0)"/>
<path d="" fill="#0085FF" transform="translate(0,0)"/>
<path d="" fill="#0085FF" transform="translate(0,0)"/>
<path d="" fill="#0085FF" transform="translate(0,0)"/>
<path d="" fill="#0085FF" transform="translate(0,0)"/>
<path d="" fill="#0085FF" transform="translate(0,0)"/>
<path d="" fill="#0085FF" transform="translate(0,0)"/>
<path d="" fill="#0085FF" transform="translate(0,0)"/>
<path d="" fill="#0085FF" transform="translate(0,0)"/>
<path d="" fill="#0085FF" transform="translate(0,0)"/>
<path d="" fill="#0085FF" transform="translate(0,0)"/>
<path d="" fill="#0085FF" transform="translate(0,0)"/>
<path d="" fill="#0085FF" transform="translate(0,0)"/>
<path d="" fill="#0085FF" transform="translate(0,0)"/>
<path d="" fill="#0085FF" transform="translate(0,0)"/>
<path d="" fill="#0085FF" transform="translate(0,0)"/>
<path d="" fill="#0085FF" transform="translate(0,0)"/>
<path d="" fill="#0085FF" transform="translate(0,0)"/>
<path d="" fill="#0085FF" transform="translate(0,0)"/>
<path d="" fill="#0085FF" transform="translate(0,0)"/>
<path d="" fill="#0085FF" transform="translate(0,0)"/>
<path d="" fill="#0085FF" transform="translate(0,0)"/>
<path d="" fill="#0085FF" transform="translate(0,0)"/>
<path d="" fill="#0085FF" transform="translate(0,0)"/>
<path d="" fill="#0085FF" transform="translate(0,0)"/>
<path d="" fill="#0085FF" transform="translate(0,0)"/>
<path d="" fill="#0085FF" transform="translate(0,0)"/>
<path d="" fill="#0085FF" transform="translate(0,0)"/>
<path d="" fill="#0085FF" transform="translate(0,0)"/>
<path d="" fill="#0085FF" transform="translate(0,0)"/>
<path d="" fill="#0085FF" transform="translate(0,0)"/>
<path d="" fill="#0085FF" transform="translate(0,0)"/>
<path d="" fill="#0085FF" transform="translate(0,0)"/>
<path d="" fill="#0085FF" transform="translate(0,0)"/>
<path d="" fill="#0085FF" transform="translate(0,0)"/>
<path d="" fill="#0085FF" transform="translate(0,0)"/>
<path d="" fill="#0085FF" transform="translate(0,0)"/>
<path d="" fill="#0085FF" transform="translate(0,0)"/>
<path d="" fill="#0085FF" transform="translate(0,0)"/>
<path d="" fill="#0085FF" transform="translate(0,0)"/>
<path d="" fill="#0085FF" transform="translate(0,0)"/>
<path d="" fill="#0085FF" transform="translate(0,0)"/>
<path d="" fill="#0085FF" transform="translate(0,0)"/>
<path d="" fill="#0085FF" transform="translate(0,0)"/>
<path d="" fill="#0085FF" transform="translate(0,0)"/>
<path d="" fill="#0085FF" transform="translate(0,0)"/>
<path d="" fill="#0085FF" transform="translate(0,0)"/>
<path d="" fill="#0085FF" transform="translate(0,0)"/>
<path d="" fill="#0085FF" transform="translate(0,0)"/>
<path d="" fill="#0085FF" transform="translate(0,0)"/>
<path d="" fill="#0085FF" transform="translate(0,0)"/>
<path d="" fill="#0085FF" transform="translate(0,0)"/>
<path d="" fill="#0085FF" transform="translate(0,0)"/>
<path d="" fill="#0085FF" transform="translate(0,0)"/>
<path d="" fill="#0085FF" transform="translate(0,0)"/>
<path d="" fill="#0085FF" transform="translate(0,0)"/>
<path d="" fill="#0085FF" transform="translate(0,0)"/>
<path d="" fill="#0085FF" transform="translate(0,0)"/>
<path d="" fill="#0085FF" transform="translate(0,0)"/>
<path d="" fill="#0085FF" transform="translate(0,0)"/>
</svg>
